<?xml version="1.0" standalone="no"?> <!DOCTYPE svg PUBLIC "-//W3C//DTD SVG 1.0//EN" "http://www.w3.org/TR/2001/REC-SVG-20010904/DTD/svg10.dtd" > <svg xmlns="http://www.w3.org/2000/svg" width="100%" height="100%">
<defs >
<font id="zxx-noise" horiz-adv-x="646" ><font-face
    font-family="ZXX Noise"
    units-per-em="1000"
    panose-1="0 0 0 0 0 0 0 0 0 0"
    ascent="770"
    descent="-230"
    alphabetic="0" />
<missing-glyph horiz-adv-x="500" d="M50 -230V720H450V-230H50ZM100 -180H400V670H100V-180Z" />
<glyph unicode=" " glyph-name="space" horiz-adv-x="650" />
<glyph unicode="!" glyph-name="exclam" horiz-adv-x="650" d="M279 222V750H369V222H279ZM480 630V675H525V630H480ZM438 585H393V630H438V585ZM123 630H168V540H123V630ZM573 540H528V585H573V540ZM483 540V495H393V540H483ZM78 450H33V495H78V450ZM78 405V450H123V405H78ZM528
450H618V405H573V360H528V450ZM258 360H213V405H258V360ZM78 360H33V405H78V360ZM123 315H78V360H123V315ZM213 270V315H258V225H168V270H213ZM528 225V270H573V225H528ZM618 135H573V180H618V135ZM528 135H483V180H528V135ZM78 135H33V180H78V135ZM248 0V153H401V0H248Z"
/>
<glyph unicode="&quot;" glyph-name="quotedbl" horiz-adv-x="650" d="M100 577L140 800H283L243 577H100ZM510 577H367L407 800H550L510 577Z" />
<glyph unicode="#" glyph-name="numbersign" horiz-adv-x="650" d="M423 269L447 468H237L213 269H423ZM202 179L180 0H90L112 179H42L53 269H123L147 468H57L68 558H158L180 738H270L248 558H458L480 738H570L548 558H618L607 468H537L513 269H603L592 179H502L480
0H390L412 179H202Z" />
<glyph unicode="$" glyph-name="dollar" horiz-adv-x="650" d="M284 366V572Q233 563 199 535T165 465Q167 429 197 401T284 366ZM365 76L366 77Q416 85 450 112T484 182Q482 218 452 246T365 281V76ZM565 187V178Q565 109 512 55T365 -8V-85H284V-6Q217 1 164
37Q84 92 84 187V227H165V182Q167 139 200 112T284 76V284Q196 292 144 339T85 451Q84 454 84 460V469Q84 538 137 592T284 655V730H365V653Q450 643 507 592T565 460V420H484V465Q481 516 439 543Q408 565 365 571V363Q453 355 505 307T564 195Q565 193 565 187Z"
/>
<glyph unicode="%" glyph-name="percent" horiz-adv-x="650" d="M366 646T366 581T320 469T208 422T97 469T50 581T96 692T208 738T319 692ZM127 548T151 524T209 499T266 523T290 581T266 638T209 662T151 638T127 581ZM150 100H50L500 638H600L150 100ZM600
93T554 47T443 0T331 46T284 158T330 270T442 316T554 270T600 159ZM410 77T443 77T500 101T524 158T500 216T443 240T386 216T361 159T385 101Z" />
<glyph unicode="&amp;" glyph-name="ampersand" horiz-adv-x="650" d="M481 51Q409 0 309 0T133 64Q48 135 48 258Q48 331 83 387T179 471Q149 519 149 589T185 704T297 750H303Q375 748 410 703T445 591T419 478T346 415L486 205Q493 233 493 258V403H583V252Q582
175 544 117L601 34L528 -18L481 51ZM239 593V590Q240 582 240 572L239 550Q239 532 253 515T297 495Q344 498 352 536Q356 555 356 577L355 593Q355 632 337 646T303 660T280 658T261 649Q239 636 239 593ZM138 176T190 133T312 90T431 126L248 400Q138 371 138
258Q138 176 190 133Z" />
<glyph unicode="(" glyph-name="parenleft" horiz-adv-x="650" d="M481 -90H435Q329 -88 249 -3T168 202V537Q168 623 208 691T309 793T435 828H481V738H435Q365 738 312 678T258 520V218Q258 121 311 61T435 0H481V-90Z" />
<glyph unicode=")" glyph-name="parenright" horiz-adv-x="650" d="M168 -90V0H214Q284 0 337 60T391 218V520Q391 617 338 677T214 738H168V828H214Q262 828 309 808T395 750T457 658T481 537V202Q480 83 400 -2T214 -90H168Z" />
<glyph unicode="*" glyph-name="asterisk" horiz-adv-x="650" d="M370 222H280V378L170 268L107 331L217 441H61V531H217L107 641L170 704L280 594V750H370V594L480 704L543 641L433 531H589V441H433L543 331L480 268L370 378V222Z" />
<glyph unicode="+" glyph-name="plus" horiz-adv-x="650" d="M280 95V324H71V414H280V643H370V414H579V324H370V95H280Z" />
<glyph unicode="," glyph-name="comma" horiz-adv-x="650" d="M450 150V200H500V150H450ZM150 150V200H200V150H150ZM200 -50H150V0H200V-50ZM550 -50H500V0H550V-50ZM450 -150H400V-100H450V-150ZM185 -170H140V-80H191Q239 -79 258 -63T281 0H252V153H405V0H371Q365
-87 327 -128T185 -170Z" />
<glyph unicode="-" glyph-name="hyphen" horiz-adv-x="650" d="M190 280V370H460V280H190Z" />
<glyph unicode="." glyph-name="period" horiz-adv-x="650" d="M248 0V153H401V0H248Z" />
<glyph unicode="/" glyph-name="slash" horiz-adv-x="650" d="M176 0H66L474 738H584L176 0Z" />
<glyph unicode="0" glyph-name="zero" horiz-adv-x="650" d="M528 630V675H573V630H528ZM393 495V540H438V495H393ZM303 360H258V405H303V360ZM393 360V405H438V360H393ZM348 270H303V315H348V270ZM258 135H213V180H258V135ZM375 81Q485 81 485 277V387Q485 583
375 583H270Q221 582 195 540H213V495H177Q165 450 165 387V277Q165 81 275 81H375ZM84 402Q84 453 93 495H80V540H107Q130 599 173 631T275 664H380Q478 661 528 572V585H573V540H543Q566 480 566 402V263Q566 249 564 225H573V180H558Q542 99 495 50T375 0H275Q184
1 135 75T84 263V402Z" />
<glyph unicode="1" glyph-name="one" horiz-adv-x="650" d="M215 495V540H260V495H215ZM530 450V495H575V450H530ZM260 405H215V450H260V405ZM125 360H80V405H125V360ZM575 315H530V360H575V315ZM125 270H80V315H125V270ZM620 225H575V270H620V225ZM85 0V81H339V135H305V180H339V583L134
526V607L339 664H420V270H440V225H420V81H566V0H85Z" />
<glyph unicode="2" glyph-name="two" horiz-adv-x="650" d="M212 720V765H257V720H212ZM167 675H122V720H167V675ZM122 585H77V630H122V585ZM32 405V450H77V405H32ZM167 315H122V360H167V315ZM572 270H527V315H572V270ZM122 270V225H32V270H122ZM483 227H482V270H527V227H564V135H572V90H564V0H54V81H107L122
96V135H162L347 316V360H392L438 405H437V450H482Q478 508 435 545T325 583T211 544T164 432V392H83V438Q85 544 156 604T324 664Q396 664 454 630H482V611Q538 566 557 495H572V450H563Q565 445 565 430T553 403L370 225H392V180H347V203L222 81H483V227ZM392
90H347V135H392V90Z" />
<glyph unicode="3" glyph-name="three" horiz-adv-x="650" d="M530 585V630H575V585H530ZM395 495H350V540H395V495ZM215 495V540H260V495H215ZM620 180H575V225H620V180ZM566 195V186Q566 111 505 56T335 0H321Q229 2 171 41T95 135H80V180H86Q85 185 85 195V236H125V270H170V225H166V190Q167
160 187 135H215V110Q260 81 324 81T437 110T485 190Q483 229 448 258T350 292V270H305V292H231V315H215V360H231V373H335Q405 373 444 403T485 474Q482 523 439 553T329 583T214 554T166 469V428H85V475Q87 563 158 613T325 664H335Q443 664 504 609T566 478V469Q566
463 565 460Q557 380 484 332Q557 284 565 204Q566 201 566 195ZM350 90H305V135H350V90Z" />
<glyph unicode="4" glyph-name="four" horiz-adv-x="650" d="M168 630H123V675H168V630ZM486 227V520L218 227H486ZM303 450H258V495H303V450ZM213 405H168V450H213V405ZM483 315H438V360H483V315ZM618 180H573V225H618V180ZM215 90H170V135H215V90ZM350 90H305V135H350V90ZM78
45V90H123V45H78ZM486 0V146H126L96 213L348 488V495H354L483 636V675H528V664H567V585H573V540H567V360H573V315H567V45H573V0H486Z" />
<glyph unicode="5" glyph-name="five" horiz-adv-x="650" d="M438 495H393V540H438V495ZM213 495H168V540H213V495ZM125 315H80V360H125V315ZM303 270V315H348V270H303ZM215 270H170V315H215V270ZM565 241V232Q565 125 491 59Q488 57 483 52V45H474Q416 0 334
0H325Q229 0 157 61T84 232V273H165V226Q167 156 214 119T328 81T442 124Q484 170 484 242T438 361V360H393V390Q366 401 334 401H303V360H258V401H84V664H565V585H573V540H528V583H165V482H348Q450 476 507 405T565 241ZM213 135V180H258V135H213Z" />
<glyph unicode="6" glyph-name="six" horiz-adv-x="650" d="M565 250V232Q565 125 491 59Q429 0 334 0H320Q227 2 159 59T84 218V448Q90 549 160 606T325 664Q440 664 511 585H528V562Q547 534 558 495H573V450H564Q565 444 565 432V392H519Q530 378 540 360H573V315H557Q565
283 565 250ZM484 429V438Q482 503 442 540H438V544L437 545Q393 583 326 583T212 544T165 432V428Q231 482 325 482H334Q368 482 393 475V495H438V459Q462 448 484 429ZM258 270H213V315H258V270ZM573 225V270H618V225H573ZM439 360Q398 401 328 401T213 363V360H209Q165
318 165 250V225H213V180H173Q189 131 231 106T325 81Q396 81 442 124Q476 161 483 221V225H438V270H482Q479 291 469 315H438V360H439ZM573 0H528V45H573V0Z" />
<glyph unicode="7" glyph-name="seven" horiz-adv-x="650" d="M350 495V540H438V495H350ZM213 495H168V540H213V495ZM260 450V495H305V450H260ZM303 360H258V405H303V360ZM573 315H528V360H573V315ZM618 180H573V225H618V180ZM565 431Q564 430 564 430T563 426V425Q562
424 562 423T561 422L555 413L440 278V270H433L203 -1H96L213 136V180H250L327 270H260V315H348V295L403 360H393V405H440V403L485 456V583H84V664H565V633Q566 630 566 624V585H573V540H566V447Q567 442 565 432V431ZM438 45V90H483V45H438Z" />
<glyph unicode="8" glyph-name="eight" horiz-adv-x="650" d="M260 495H215V540H260V495ZM393 495H348V540H438V450H393V495ZM303 405H348V373Q412 377 447 406T484 474Q481 523 438 553T328 583T213 554T165 474Q167 435 202 406T303 373V405ZM258 180V135H186Q228
81 325 81Q388 81 436 110T484 190Q482 232 443 262T334 292H308Q241 290 204 260T165 190Q165 180 168 170V180H258ZM565 195V186Q565 111 504 56T334 0H308Q204 2 144 57T84 186V195Q84 208 89 225H78V270H107Q127 306 166 332Q121 362 101 405H78V450H86L85
460Q84 463 84 469V478Q84 536 120 581T213 647V675H258V659Q288 664 315 664H334Q442 664 503 609T565 478V469Q565 463 564 460Q556 380 483 332Q512 313 528 291V315H573V225H560Q565 208 565 195ZM258 180V225H303V180H258ZM618 90H573V135H618V90Z" />
<glyph unicode="9" glyph-name="nine" horiz-adv-x="650" d="M618 720V675H528V720H618ZM168 405V395Q176 342 207 307Q252 263 321 263T438 302T485 414V432Q485 504 438 545Q392 583 324 583T210 542Q166 497 166 423Q166 411 167 405H168ZM348 540H393V450H348V540ZM393
405V450H438V405H393ZM303 405V450H348V405H303ZM78 270H33V315H78V270ZM120 180H75V225H120V180ZM165 135H120V180H165V135ZM120 90H75V135H120V90ZM210 45H165V90H210V45ZM573 45H528V90H573V45ZM316 664H326Q341 664 348 663V675H483V612Q560 550 566 447V222Q566
119 497 60T307 0H267V81H312Q358 81 393 93V135H438V115Q485 152 485 222V236Q419 182 326 182H303V180H213V204Q179 221 161 239Q105 287 90 360H78V405H85V432Q85 531 149 595Q213 664 316 664Z" />
<glyph unicode=":" glyph-name="colon" horiz-adv-x="650" d="M241 465V633H409V465H241ZM241 41V209H409V41H241Z" />
<glyph unicode=";" glyph-name="semicolon" horiz-adv-x="650" d="M241 465V633H409V465H241ZM182 -122H137V-32H188Q235 -31 253 -16T277 41H241V209H409V41H368Q361 -42 322 -82T182 -122Z" />
<glyph unicode="=" glyph-name="equal" horiz-adv-x="650" d="M579 414H71V504H579V414ZM71 234V324H579V234H71Z" />
<glyph unicode="?" glyph-name="question" horiz-adv-x="650" d="M618 720V675H528V720H618ZM573 540H618V450H573V540ZM573 405H618V315H573V405ZM393 135V210Q359 192 316 192Q241 192 205 237T168 349Q168 381 177 405H168V450H203Q237 487 295 495H215V540H303V496Q310
497 322 497T350 500V540H395V524Q413 542 413 574V585H393V630H398Q374 670 325 670T252 630H303V585H237V574H147Q147 603 154 630H123V675H168V669Q212 760 325 760H332Q436 757 479 675H483V667Q503 624 503 574Q503 505 453 456T325 407Q286 407 272 389T258
340T276 296T310 282T333 284T352 293Q374 306 374 349H464Q464 268 415 225H438V135H393ZM78 270H33V315H78V360H123V225H78V270ZM123 180V225H168V180H123ZM123 135H78V180H123V135ZM573 135V180H618V135H573ZM393 46T371 23T317 0T263 23T240 77T262 130T316
153T370 131T393 78ZM438 45H393V90H438V45ZM78 45V90H123V45H78ZM573 0H528V45H573V0Z" />
<glyph unicode="@" glyph-name="at" horiz-adv-x="650" d="M361 -45Q260 -45 185 14T72 168T34 367T68 552T173 685T338 738H342Q421 737 485 692T582 581T615 447Q615 330 546 238V130H456V162Q410 140 358 140Q281 140 226 195T170 328T225 461T358 516Q411
516 455 489T524 416Q526 438 526 447Q526 524 470 586T339 648Q244 648 184 571T123 377Q123 183 231 92Q286 45 361 45H406V-45H361ZM398 231T427 259T456 328T427 397T359 426T290 398T261 329T290 260T359 231Z" />
<glyph unicode="A" glyph-name="A" horiz-adv-x="650" d="M528 675H573V585H528V675ZM213 630V675H258V630H213ZM483 540H438V585H483V540ZM213 495H168V540H213V495ZM123 450H78V495H123V450ZM528 450H483V495H528V450ZM528 360H483V405H528V360ZM168 315H123V360H168V315ZM348
315V270H258V307L217 190H434L326 500L261 315H348ZM618 270V225H528V270H618ZM393 225H348V270H393V225ZM123 225H78V270H123V225ZM78 135H33V180H78V135ZM618 90H573V135H618V90ZM70 0L297 664H354L581 0H499L462 109H189L152 0H70ZM258 45H213V90H258V45ZM438
45V0H348V45H438Z" />
<glyph unicode="B" glyph-name="B" horiz-adv-x="650" d="M530 585V630H575V585H530ZM168 373H344Q413 375 450 406T487 478T448 551T337 583H260V540H215V583H168V373ZM395 495V540H440V495H395ZM260 405H215V450H260V405ZM440 405H395V450H440V405ZM620 315H575V360H620V315ZM215
225H170V270H215V225ZM440 180H395V225H440V180ZM337 292H168V81H337Q374 81 403 90H395V135H440V107Q487 138 487 183T448 260T337 292ZM575 0H530V45H575V0ZM87 0V664H350Q452 660 510 606T568 478Q568 387 486 332Q568 277 568 186Q568 114 510 59T350 0H87Z"
/>
<glyph unicode="C" glyph-name="C" horiz-adv-x="650" d="M480 630V675H525V630H480ZM120 630V675H165V630H120ZM563 232Q563 123 491 62T322 0H317Q225 2 156 59T81 218V448Q87 550 158 607T324 664T491 603T563 432H482Q482 504 436 543T323 583T209 544T162
432V232Q162 159 209 120T322 81T435 120T482 232H563ZM300 450H255V495H300V450ZM390 450H345V495H390V450ZM210 405H165V450H210V405ZM480 315H435V360H480V315ZM570 315H525V360H570V315ZM300 180H255V225H300V180ZM75 90H30V135H75V90ZM165 0H120V45H165V0Z"
/>
<glyph unicode="D" glyph-name="D" horiz-adv-x="650" d="M530 630V675H575V630H530ZM575 540H530V585H575V540ZM337 81Q404 81 445 152T487 328T447 508T337 583H167V81H337ZM395 495H350V540H395V495ZM260 450V495H305V450H260ZM440 360H395V405H440V360ZM440
270H395V315H440V270ZM305 270H260V315H305V270ZM350 90H305V135H350V90ZM260 90H215V135H260V90ZM620 0H575V45H620V0ZM87 0V664H346Q350 664 353 663Q455 655 511 558T568 332T515 112Q455 9 353 1Q351 0 346 0H87Z" />
<glyph unicode="E" glyph-name="E" horiz-adv-x="650" d="M573 540V585H618V540H573ZM213 540H258V450H213V540ZM393 495V540H438V495H393ZM393 450H348V495H393V450ZM528 495H573V405H528V495ZM483 405H438V450H483V405ZM573 315H528V360H573V315ZM348 225H303V270H348V225ZM528
270V225H438V270H528ZM78 180H33V225H78V180ZM618 180H573V225H618V180ZM303 225V180H213V225H303ZM483 135H438V180H483V135ZM213 90H168V135H213V90ZM573 90H528V135H573V90ZM393 90H348V135H393V90ZM84 0V664H565V583H165V373H420V292H165V81H565V0H84Z" />
<glyph unicode="F" glyph-name="F" horiz-adv-x="650" d="M573 585V630H618V585H573ZM33 540H78V450H33V540ZM348 495V540H393V495H348ZM528 540H573V450H528V540ZM213 495V540H258V495H213ZM438 450H393V495H438V450ZM573 315H528V360H573V315ZM258 225H213V270H258V225ZM393
225H348V270H393V225ZM213 180H168V225H213V180ZM483 180V135H393V180H483ZM573 135H528V180H573V135ZM258 45H213V90H258V45ZM573 45H528V90H573V45ZM393 45H348V90H393V45ZM165 0H84V664H565V583H438V540H393V583H165V410H213V450H258V410H492V329H165V0Z" />
<glyph unicode="G" glyph-name="G" horiz-adv-x="650" d="M528 585V630H573V585H528ZM78 585V630H123V585H78ZM438 495H393V540H438V495ZM258 450H213V495H258V450ZM303 405H258V450H303V405ZM393 405H348V450H393V405ZM618 360H573V405H618V360ZM258 360H213V405H258V360ZM78
315H33V360H78V315ZM258 270H213V315H258V270ZM438 180H393V225H438V180ZM565 337V217Q559 115 489 58T324 0T160 58T84 218V448Q90 549 160 606T324 664Q387 664 438 639V675H483V630H455Q557 572 564 450H573V405H528V432H484Q484 504 439 543T324 583Q310 583
303 582V540H258V571Q216 556 191 521T165 432V232Q165 214 168 199V225H213V180H173Q189 132 231 107T331 81T437 120T484 232V256H303V337H565ZM393 180V135H303V180H393ZM78 45H33V90H78V45ZM573 45H528V90H573V45ZM168 0H123V45H168V0Z" />
<glyph unicode="H" glyph-name="H" horiz-adv-x="650" d="M573 630V675H618V630H573ZM438 675V630H348V675H438ZM258 585V630H303V585H258ZM258 585V540H168V585H258ZM483 540H438V585H483V540ZM348 540H393V450H348V540ZM573 540H618V450H573V540ZM258 450H213V495H258V450ZM78
315H33V360H78V315ZM213 270H168V315H213V270ZM303 270H258V315H303V270ZM348 225H303V270H348V225ZM213 180H168V225H303V180H258V135H213V180ZM33 180V225H78V180H33ZM393 225H438V135H393V225ZM618 135H573V180H618V135ZM213 90H168V135H213V90ZM393 90H348V135H393V90ZM438
45H393V90H438V45ZM33 90H84V495H33V540H84V585H78V630H84V664H165V410H168V450H213V410H303V450H348V410H393V450H438V410H484V664H565V360H618V270H573V315H565V0H484V329H483V270H438V329H393V315H348V329H165V0H84V45H78V0H33V90ZM618 45H573V90H618V45ZM483
0H438V45H483V0ZM303 45V90H348V0H258V45H303Z" />
<glyph unicode="I" glyph-name="I" horiz-adv-x="650" d="M525 495V540H570V495H525ZM390 495V540H435V495H390ZM120 540V495H30V540H120ZM210 450H165V495H210V450ZM435 360H390V405H435V360ZM120 360H75V405H120V360ZM570 360H525V405H570V360ZM255 315V270H165V315H255ZM525
270H570V180H525V270ZM120 225H75V270H120V225ZM435 225H390V270H435V225ZM255 135H210V180H255V135ZM480 90H435V135H480V90ZM75 90H30V135H75V90ZM81 0V81H281V315H255V360H281V583H255V540H210V583H81V664H563V583H362V450H390V405H362V81H563V0H81Z" />
<glyph unicode="J" glyph-name="J" horiz-adv-x="650" d="M80 585V630H125V585H80ZM440 495H395V540H440V495ZM125 495V540H170V495H125ZM395 315H440V225H395V315ZM305 180H260V225H305V180ZM569 123T497 62T329 0T164 58Q142 78 125 100V90H80V135H106Q87 177
87 232V273H168V232Q168 159 215 120T328 81T441 120T488 232V583H233V664H569V232Q569 123 497 62ZM620 45H575V90H620V45ZM575 0H530V45H575V0ZM125 0H80V45H125V0Z" />
<glyph unicode="K" glyph-name="K" horiz-adv-x="650" d="M215 630V675H260V630H215ZM575 540H530V585H575V540ZM260 495H215V540H260V495ZM485 405H440V450H485V405ZM350 315H305V360H350V315ZM530 225H485V270H530V225ZM215 180H170V225H215V180ZM620 45H575V90H620V45ZM168
0H87V664H168V373H205L459 664H568L278 332L509 68L568 0H459L395 74V45H350V90H381L204 292H168V0ZM260 0H215V45H260V0Z" />
<glyph unicode="L" glyph-name="L" horiz-adv-x="650" d="M213 630V675H258V630H213ZM78 540H33V585H78V540ZM528 585V540H438V585H528ZM573 450H528V495H573V450ZM438 450H393V495H438V450ZM258 405H213V450H258V405ZM213 360H168V405H213V360ZM348 405H393V315H348V405ZM573
360H528V405H573V360ZM303 315V270H213V315H303ZM618 180H573V225H618V180ZM483 180H438V225H483V180ZM348 180H438V135H393V90H348V180ZM258 135H213V180H258V135ZM573 90H528V135H573V90ZM84 0V664H165V81H565V0H84Z" />
<glyph unicode="M" glyph-name="M" horiz-adv-x="650" d="M393 585V630H438V585H393ZM258 585V630H303V585H258ZM303 495H348V405H303V495ZM618 450H573V495H618V450ZM78 360H33V405H78V360ZM348 270H303V315H348V270ZM78 225H33V270H78V225ZM618 90H573V135H618V90ZM483
90H438V135H483V90ZM213 90H168V135H213V90ZM618 405V360H565V0H484V394L460 315H483V270H447L365 0H285L258 89V45H213V90H258L203 270H168V315H190L165 397V0H84V664H165L213 505V540H258V495H216L324 137L378 315H348V360H392L433 495H393V540H438V512L484 664H565V405H618ZM438
0H393V45H438V0Z" />
<glyph unicode="N" glyph-name="N" horiz-adv-x="650" d="M213 630V675H258V630H213ZM348 585H303V630H348V585ZM483 540H438V585H483V540ZM348 585H393V495H348V585ZM618 495H573V540H618V495ZM78 495H33V540H78V495ZM165 0H84V664H165L484 152V664H565V0H484L213
435V405H168V450H203L165 512V0ZM393 405H348V450H393V405ZM483 360H438V405H483V360ZM213 315H168V360H213V315ZM438 315H393V360H438V315ZM618 270H573V315H618V270ZM258 225H213V270H258V225ZM618 135H573V180H618V135ZM303 135H258V180H303V135ZM348 90H303V135H348V90ZM258
90H213V135H258V90ZM393 45V0H303V45H393Z" />
<glyph unicode="O" glyph-name="O" horiz-adv-x="650" d="M123 630V675H168V630H123ZM483 630V675H528V630H483ZM356 0T325 0T265 6T202 34T143 89T101 186T84 332T101 477T142 574T201 630T265 657T325 664T384 658T447 630T506 575T548 478T565 332T548 187T507
90T448 34T385 7ZM573 540H528V585H573V540ZM393 450H348V495H393V450ZM303 450H258V495H303V450ZM165 332Q165 81 324 81T484 332Q484 473 435 535Q396 583 325 583T214 535Q189 503 177 450H213V405H169Q165 376 165 332ZM483 315H438V360H483V315ZM258 180V225H303V180H258ZM123
45H78V90H123V45ZM573 0H528V45H573V0Z" />
<glyph unicode="P" glyph-name="P" horiz-adv-x="650" d="M528 630V675H573V630H528ZM334 263Q407 263 446 310T485 423T446 536T334 583H165V263H334ZM393 495V540H438V495H393ZM168 495V540H213V495H168ZM303 360H258V405H303V360ZM438 360H393V405H438V360ZM348
270H303V315H348V270ZM573 180H528V225H573V180ZM258 135H213V180H258V135ZM483 45H438V90H483V45ZM165 0H84V664H349Q467 657 528 560V585H573V540H539Q566 486 566 423Q566 330 508 259T349 182H165V0Z" />
<glyph unicode="Q" glyph-name="Q" horiz-adv-x="650" d="M258 495V540H303V495H258ZM78 450H33V495H78V450ZM618 450H573V495H618V450ZM438 450H393V495H438V450ZM258 405H213V450H258V405ZM165 89Q167 81 173 81H257L382 171L286 305L318 327L320 329L353 352L448
218L484 244V575Q484 583 476 583H173Q165 583 165 575V89ZM213 270H168V315H213V270ZM483 270H438V315H483V270ZM303 180H258V225H303V180ZM273 0H173Q136 0 110 26T84 89V575Q84 612 110 638T173 664H476Q514 664 539 638T565 575V223Q565 201 548 190L534 180H573V135H528V176L495
152L582 31L516 -16L429 105L294 7Q286 2 273 0ZM438 0H393V45H438V0Z" />
<glyph unicode="R" glyph-name="R" horiz-adv-x="650" d="M530 585V630H575V585H530ZM337 263Q409 263 448 310T487 423T449 536T337 583H168V263H337ZM350 495V540H395V495H350ZM215 495V540H260V495H215ZM260 315H215V360H260V315ZM440 315H395V360H440V315ZM530
180H485V225H530V180ZM620 180H575V225H620V180ZM358 183L351 182H168V0H87V664H351Q453 658 510 587T568 423Q568 353 535 293T439 204L530 47V90H575V45H531L557 0H463L358 183ZM215 90H170V135H215V90ZM350 90H305V135H350V90Z" />
<glyph unicode="S" glyph-name="S" horiz-adv-x="650" d="M78 630V675H123V630H78ZM528 585V630H573V585H528ZM258 495H213V540H258V495ZM393 495H348V540H438V450H393V495ZM303 405H258V450H303V405ZM573 360H528V405H573V360ZM123 315H78V360H123V315ZM258 270V225H168V270H258ZM438
225V180H348V225H438ZM303 135H258V180H303V135ZM348 90H303V135H348V90ZM565 195V186Q565 111 504 56T334 0H324Q230 0 164 46Q138 64 123 83V45H78V90H118Q84 136 84 195V236H165V195Q165 140 213 111T324 81T436 110T484 190Q482 232 444 262T334 292H312Q212
293 152 342T85 460Q84 463 84 469V478Q84 553 145 608T315 664H324Q386 664 438 643V675H483V630H465Q565 576 565 469V428H484V469Q484 520 440 551T329 583T213 554T165 474Q167 433 206 403T315 373H348V405H393V368Q419 363 438 355V360H483V333Q556 284 564
204Q565 201 565 195ZM573 0H528V45H573V0Z" />
<glyph unicode="T" glyph-name="T" horiz-adv-x="650" d="M33 540V585H78V540H33ZM213 540H258V450H213V540ZM393 450V495H438V450H393ZM213 360H168V405H213V360ZM33 405H78V315H33V405ZM483 315H438V360H483V315ZM573 315H528V360H573V315ZM258 270H213V315H258V270ZM618
225H573V270H618V225ZM483 225H438V270H528V180H483V225ZM213 225V180H123V225H213ZM258 45H213V90H258V45ZM438 45H393V90H438V45ZM573 0H528V45H573V0ZM284 0V583H165V428H84V664H565V428H484V583H483V540H438V583H483V585H438V583H365V0H284Z" />
<glyph unicode="U" glyph-name="U" horiz-adv-x="650" d="M573 585V630H618V585H573ZM393 585V630H438V585H393ZM303 630V585H213V630H303ZM566 0H485V54Q419 0 325 0T161 58T85 217V664H166V232Q166 159 213 120T325 81Q356 81 384 90H348V135H393V93Q435 109
460 144T485 232V664H566V0ZM303 495H258V540H303V495ZM33 495V540H78V495H33ZM438 450H393V495H438V450ZM348 405H393V315H348V405ZM573 405H618V315H573V405ZM213 315V360H258V315H213ZM78 180H33V225H78V180ZM393 180V225H438V180H393ZM303 225V180H213V225H303ZM618
45H573V90H618V45ZM78 45H33V90H78V45ZM168 0H123V45H168V0Z" />
<glyph unicode="V" glyph-name="V" horiz-adv-x="650" d="M395 585V630H440V585H395ZM328 0H322Q306 3 295 15L294 18Q289 24 288 31L94 460Q88 468 86 479V664H167V489L327 137L488 491V664H569V484Q569 471 559 459L367 32Q367 30 359 15Q351 6 338 1H335Q333
0 328 0ZM215 495V540H260V495H215ZM395 405H350V450H395V405ZM620 315H575V360H620V315ZM350 270H305V315H350V270ZM170 225H125V270H170V225ZM530 180H485V225H530V180ZM125 135H80V180H125V135ZM485 45H440V90H485V45ZM215 0H170V45H215V0Z" />
<glyph unicode="W" glyph-name="W" horiz-adv-x="650" d="M395 585V630H440V585H395ZM215 585V630H260V585H215ZM395 450H350V495H395V450ZM260 450H215V495H260V450ZM620 360H575V405H620V360ZM575 180H530V225H575V180ZM530 45H485V90H530V45ZM125 45H80V90H125V45ZM350
45H305V90H350V45ZM242 0H231Q226 1 216 5Q195 18 197 42L125 334V315H80V360H119L93 464L92 466Q91 466 88 472T87 488V624H86V664H167V633Q168 630 168 624V482L238 197L288 382V418H369V377L417 196L488 482V624H487V664H568V633Q569 630 569 624V489Q570 486
570 482T566 471V470L565 467L564 466L563 464L459 42Q461 18 440 5Q430 0 419 0H414Q395 4 384 20V21Q379 29 379 40L328 229L277 38Q277 29 272 21V20L270 16Q254 0 242 0Z" />
<glyph unicode="X" glyph-name="X" horiz-adv-x="650" d="M258 585V630H303V585H258ZM33 585V630H78V585H33ZM573 495H528V540H573V495ZM348 495H303V540H348V495ZM528 360H483V405H528V360ZM168 315H123V360H168V315ZM618 135H573V180H618V135ZM348 90H303V135H348V90ZM168
225V270H213V225V226L279 332L74 664H168L325 408L483 664H576L372 332L576 0H483L438 73V45H393V90H428L325 256L168 0H74L213 225H168Z" />
<glyph unicode="Y" glyph-name="Y" horiz-adv-x="650" d="M215 540V585H260V540H215ZM440 495H395V540H440V495ZM350 405H305V450H350V405ZM125 315H80V360H125V315ZM215 270H170V315H215V270ZM620 270H575V315H620V270ZM485 225H440V270H485V225ZM170 90H125V135H170V90ZM440
45H395V90H440V45ZM260 45H215V90H260V45ZM367 0H286V277L109 404Q86 414 86 441V664H167V461L327 344L487 461V664H568V441Q568 414 546 405L367 276V0Z" />
<glyph unicode="Z" glyph-name="Z" horiz-adv-x="650" d="M215 495V540H260V495H215ZM575 450H530V495H575V450ZM260 405H215V450H260V405ZM125 360H80V405H125V360ZM575 315H530V360H575V315ZM125 270H80V315H125V270ZM440 225H395V270H440V225ZM620 225H575V270H620V225ZM350
135H305V180H350V135ZM86 0V42Q88 52 90 55L96 67L451 583H167V437H86V664H568V625Q568 611 561 601L395 360H440V315H395V360L203 81H487V227H568V0H86Z" />
<glyph unicode="[" glyph-name="bracketleft" horiz-adv-x="650" d="M138 -90V828H511V738H228V0H511V-90H138Z" />
<glyph unicode="\" glyph-name="backslash" horiz-adv-x="650" d="M176 738L584 0H474L66 738H176Z" />
<glyph unicode="]" glyph-name="bracketright" horiz-adv-x="650" d="M139 -90V0H422V738H139V828H512V-90H139Z" />
<glyph unicode="_" glyph-name="underscore" horiz-adv-x="650" d="M57 0V90H592V0H57Z" />
<glyph unicode="a" glyph-name="a" horiz-adv-x="650" d="M528 495V540H573V495H528ZM78 450H33V495H78V450ZM618 450H573V495H618V450ZM33 405H123V360H78V315H33V405ZM618 315H573V360H618V315ZM326 0H316Q255 0 213 13V0H168V32Q140 47 123 69V45H78V90H108Q85
131 85 186Q85 207 88 225H33V270H101Q113 296 132 315H123V360H168V342Q219 371 303 374V405H348V374Q366 373 393 369V405H438V360H432Q461 351 482 337Q469 428 393 442V405H348V445H258V405H213V445H168V405H123V450H157V495H78V540H168V526H366Q405 524 438
514V540H483V495H476Q507 475 528 443V450H573V405H547Q566 356 566 295V45H573V0H485V38Q465 25 438 16V0H393V5Q360 0 326 0ZM348 270H438V225H393V180H348V270ZM618 180H573V225H618V180ZM213 180V225H258V180H213ZM33 180H78V90H33V180ZM213 135H176Q172 142
168 160V180H213V135ZM258 180H348V135H303V90H258V180ZM316 81H326Q375 81 408 90H393V135H438V103Q475 126 476 180H438V225H471Q461 261 431 276T348 293V270H303V293Q231 291 201 270H213V225H171Q166 207 166 192T168 160V135H176Q200 81 316 81ZM618 45H573V90H618V45ZM78
0H33V45H78V0Z" />
<glyph unicode="b" glyph-name="b" horiz-adv-x="650" d="M525 675V720H570V675H525ZM435 630V675H480V630H435ZM210 630V675H255V630H210ZM30 540V585H75V540H30ZM435 540V585H480V540H435ZM210 540V585H255V540H210ZM570 450H525V495H570V450ZM256 81T322 81T435
120T482 232V294Q482 360 437 402T324 445T209 406T162 294V232Q162 159 209 120ZM390 360H345V405H390V360ZM255 360H210V405H255V360ZM435 270V225H300V270H435ZM210 225H165V270H210V225ZM435 135H390V180H435V135ZM255 135H210V180H255V135ZM75 45H30V90H75V45ZM570
45H525V90H570V45ZM162 0H81V720H162V472Q230 526 324 526T491 465T563 296V217Q557 115 486 58T322 0H317Q228 2 162 55V0ZM525 0H480V45H525V0ZM210 -45H165V0H210V-45Z" />
<glyph unicode="c" glyph-name="c" horiz-adv-x="650" d="M575 495V540H620V495H575ZM125 495V540H170V495H125ZM346 0Q226 0 155 60Q86 120 86 222V298Q87 404 159 465T327 526T496 464T568 294H487Q487 360 442 402T329 445T214 406T167 294V222Q167 81 346
81H568V0H346ZM395 360H350V405H395V360ZM260 360H215V405H260V360ZM575 225H530V270H575V225ZM260 135H215V180H260V135ZM485 135H440V180H485V135ZM620 90H575V135H620V90ZM125 45H80V90H125V45ZM170 0H125V45H170V0Z" />
<glyph unicode="d" glyph-name="d" horiz-adv-x="650" d="M393 630V675H438V630H393ZM123 630H168V540H123V630ZM573 585V630H618V585H573ZM348 540H303V585H348V540ZM438 540V585H483V540H438ZM78 450H33V495H78V450ZM485 0V54Q419 0 326 0H321Q228 2 160 59T85
218V298Q86 359 111 405H78V450H123V425Q156 474 210 500T325 526Q419 526 485 472V720H566V0H485ZM213 135H198Q243 81 326 81Q391 81 438 120T485 232V294Q485 360 440 402T327 445T213 406T166 294V232Q166 204 174 180H213V135ZM618 360H573V405H618V360ZM213
360V405H258V360H213ZM348 360V405H393V360H348ZM258 315V270H168V315H258ZM438 270H393V315H438V270ZM348 225H303V270H348V225ZM438 135H393V180H438V135ZM618 90H573V135H618V90ZM123 45H78V90H123V45ZM438 -45H393V0H438V-45Z" />
<glyph unicode="e" glyph-name="e" horiz-adv-x="650" d="M78 495V540H123V495H78ZM33 450V495H78V450H33ZM528 450V495H573V450H528ZM618 405H573V450H618V405ZM348 405H436L438 403V360H348V405ZM258 360H213V405H258V360ZM348 315H303V360H348V315ZM168 315V327Q165
312 165 294V270H484V299Q483 363 438 403V405H436Q402 436 348 444V405H303V444Q211 433 178 360H213V315H168ZM618 270H573V315H618V270ZM78 270H33V315H78V270ZM438 270H393V315H438V270ZM213 270V315H258V270H213ZM528 135H483V180H528V135ZM303 135H258V180H303V135ZM438
135H393V180H438V135ZM573 90H528V135H573V90ZM348 90H303V135H348V90ZM123 45H172Q140 68 123 92V90H33V135H99Q84 174 84 222V298Q85 390 141 450H123V495H168V474Q233 526 324 526Q383 526 438 501V540H483V495H449Q502 467 533 416T565 294V189H168Q189 81
343 81H565V0H337Q267 1 213 23V0H123V45Z" />
<glyph unicode="f" glyph-name="f" horiz-adv-x="650" d="M212 720V765H257V720H212ZM122 675V720H167V675H122ZM77 585V630H122V585H77ZM437 585V630H482V585H437ZM302 585V630H347V585H302ZM572 450H527V495H572V450ZM482 405H437V450H482V405ZM437 360V315H347V360H437ZM167
315H122V360H167V315ZM572 270H527V315H572V270ZM527 225H482V270H527V225ZM347 225H302V270H347V225ZM122 270V225H32V270H122ZM392 180H347V225H392V180ZM167 90H122V135H167V90ZM392 90H347V135H392V90ZM572 90H527V135H572V90ZM54 0V81H191V445H77V405H32V450H54V526L189
528Q190 637 246 696T394 756T543 697T599 526H518Q518 675 393 675Q270 675 270 526H410V445H272V81H536V0H54Z" />
<glyph unicode="g" glyph-name="g" horiz-adv-x="650" d="M438 540V585H483V540H438ZM78 450H33V495H78V450ZM78 360H33V405H78V360ZM258 360H213V405H258V360ZM438 360H393V405H437Q438 405 438 404V360ZM348 360V315H258V360H348ZM213 270H168V315H213V270ZM303
270H348V180H303V270ZM483 225V205Q485 221 485 231V294Q485 304 483 320V315H438V360H471Q459 386 438 404V405H437Q392 445 326 445T213 406T166 294V225Q169 127 258 93V135H303V90H267Q294 81 325 81Q379 81 420 108T477 180H393V225H483ZM258 135H213V180H258V135ZM78
90H130Q85 148 85 231V294Q85 388 142 450H123V540H168V474Q235 526 327 526T485 472V527H566V-8Q566 -111 498 -170Q497 -170 493 -174T485 -180H528V-225H483V-182L485 -180H483V-182Q413 -230 307 -230H267V-149H312Q485 -147 485 -8V54Q419 0 327 0T168 52V45H78V90ZM78
-45H33V0H78V-45ZM438 -45H393V0H438V-45ZM168 -45V0H213V-90H123V-45H168ZM303 -90H258V-45H303V-90ZM348 -135V-90H393V-135H348ZM618 -180H573V-135H618V-180ZM258 -135V-180H168V-135H258Z" />
<glyph unicode="h" glyph-name="h" horiz-adv-x="650" d="M528 675V720H573V675H528ZM393 630H348V675H393V630ZM213 630V675H258V630H213ZM528 585V540H438V585H528ZM528 495V540H573V495H528ZM438 360H393V405H436L438 403V360ZM258 360V405H303V360H258ZM393
270H348V315H393V270ZM213 270H168V315H213V270ZM303 270H348V180H303V270ZM618 180H573V225H618V180ZM78 180H33V225H78V180ZM483 180H438V225H483V180ZM258 90H213V135H258V90ZM438 90H393V135H438V90ZM213 45H168V90H213V45ZM438 0H393V45H438V0ZM84 0V720H165V472Q188
490 213 502V540H258V518Q292 526 324 526Q422 526 493 464T565 294V0H484V294Q484 362 438 403V405H436Q391 445 325 445T212 406T165 294V0H84Z" />
<glyph unicode="i" glyph-name="i" horiz-adv-x="650" d="M618 720V675H528V720H618ZM123 675V720H168V675H123ZM260 590V720H391V590H260ZM438 675H483V585H438V675ZM213 630H168V675H213V630ZM168 585V540H78V585H168ZM438 540H393V585H438V540ZM258 540H213V585H258V540ZM573
495H528V540H573V495ZM438 450H393V495H438V450ZM78 405H33V450H78V405ZM528 405V360H438V405H528ZM78 315H33V360H78V315ZM393 315H438V225H393V315ZM258 315V270H168V315H258ZM573 270H528V315H573V270ZM123 180H78V225H123V180ZM483 135H438V180H483V135ZM78
135H33V180H78V135ZM213 135H168V180H213V135ZM258 90H213V135H258V90ZM438 90H393V135H438V90ZM618 90H573V135H618V90ZM85 0V81H285V445H258V405H213V445H125V526H366V360H393V315H366V81H566V0H85Z" />
<glyph unicode="j" glyph-name="j" horiz-adv-x="650" d="M258 675V720H303V675H258ZM348 590V720H478V590H348ZM573 540H528V585H573V540ZM258 540H213V585H258V540ZM528 450H483V495H528V450ZM78 495H123V405H78V495ZM348 360H303V405H348V360ZM528 315H573V225H528V315ZM168
270V225H78V270H168ZM303 180H258V225H303V180ZM258 180V135H168V180H258ZM573 0H528V45H573V0ZM303 -45H258V0H303V-45ZM168 -90H123V-45H168V-90ZM573 -180H528V-135H573V-180ZM528 -225H483V-180H528V-225ZM109 -230V-149H195Q263 -149 314 -122Q341 -108 357
-79T373 -8V445H173V526H454V-8Q454 -120 371 -180H393V-225H348V-195Q286 -230 195 -230H109Z" />
<glyph unicode="k" glyph-name="k" horiz-adv-x="650" d="M528 675V720H573V675H528ZM393 675V720H438V675H393ZM258 675V720H303V675H258ZM393 630H348V675H393V630ZM528 585H483V630H528V585ZM258 585H213V630H258V585ZM78 585H33V630H78V585ZM573 585V630H618V585H573ZM483
585V540H393V585H483ZM303 540H258V585H303V540ZM618 495H573V540H618V495ZM258 495H213V540H258V495ZM303 450V405H213V450H303ZM528 450H618V405H573V360H528V450ZM168 405H213V315H168V405ZM78 225H33V270H78V225ZM528 225V270H573V225H528ZM528 180H573V90H528V180ZM78
135H33V180H78V135ZM258 135H213V180H258V135ZM213 45H168V90H213V45ZM348 45H422L381 90H348V127L300 180H258V225H260L258 227L165 134V0H84V720H165V248L367 450H348V495H393V476L443 526H560L438 405H483V360H438V405L393 360H438V270H393V315H348V316L315
283L348 247V270H393V225H368L393 197V225H483V180H408L570 0H348V45ZM258 0H213V45H258V0Z" />
<glyph unicode="l" glyph-name="l" horiz-adv-x="650" d="M483 675V720H528V675H483ZM438 585H393V630H438V585ZM258 585H213V630H258V585ZM573 540H528V585H573V540ZM33 585H78V495H33V585ZM483 540V495H393V540H483ZM168 495V540H213V495H168ZM618 450V405H528V450H618ZM168
405V360H78V405H168ZM213 315H258V225H213V315ZM78 270H33V315H78V270ZM483 270H438V315H483V270ZM528 270H573V180H528V270ZM258 135H213V180H258V135ZM123 90H78V135H123V90ZM618 45H573V90H618V45ZM438 180V135H365V81H565V0H84V81H284V450H258V495H284V639H84V720H393V675H365V405H393V360H365V180H438Z"
/>
<glyph unicode="m" glyph-name="m" horiz-adv-x="650" d="M33 495V540H78V495H33ZM315 495L324 487H325Q331 493 334 495H315ZM618 450H573V495H618V450ZM618 360H573V405H618V360ZM438 315H393V360H438V315ZM213 315H168V360H213V315ZM33 315H78V225H33V315ZM618
270H573V315H618V270ZM483 270H438V315H483V270ZM224 443L213 442V405H173Q165 380 165 303V0H84V303Q84 342 85 360H33V405H89Q94 436 101 450H78V495H123V485Q126 489 134 495H123V540H168V515Q179 526 197 526T224 525Q233 526 251 526T283 513Q297 507 303
503V540H393V526H396Q416 526 425 525Q433 526 451 526T481 514L483 513V540H573V495H515Q547 470 556 426T565 303V0H484V303Q484 344 483 360H438V405H393V433Q379 425 373 405H393V360H366Q365 347 365 315H393V270H365V225H393V270H438V180H365V135H438V90H365V45H393V0H284V90H258V135H284V180H258V225H213V180H168V270H213V315H258V270H284V315H258V360H283Q284
347 284 315Q284 346 285 360H213V405H276Q265 439 224 443ZM573 225H618V90H573V225ZM483 135H438V180H483V135ZM78 135H33V180H78V135ZM258 135H213V180H258V135ZM168 135H213V45H168V135ZM33 90H78V0H33V90ZM438 90H483V0H438V90ZM258 0H213V45H258V0Z" />
<glyph unicode="n" glyph-name="n" horiz-adv-x="650" d="M485 495V540H530V495H485ZM80 495V540H125V495H80ZM575 450H530V495H575V450ZM395 270H350V315H395V270ZM215 180H170V225H215V180ZM620 135H575V180H620V135ZM260 45H215V90H260V45ZM440 45H395V90H440V45ZM86
0V294Q86 402 158 464T327 526T496 464T568 294V0H487V294Q487 347 462 382T395 433V405H350V444Q343 445 328 445Q261 445 215 405H260V360H215V405Q167 362 167 294V0H86Z" />
<glyph unicode="o" glyph-name="o" horiz-adv-x="650" d="M573 495V540H618V495H573ZM565 123T494 62T325 0T156 61T84 231V298Q85 404 156 465T322 526T483 473V495H528V450H507Q565 389 565 296V231Q565 123 494 62ZM123 495V450H33V495H123ZM348 360V315H258V360H348ZM573
315V360H618V315H573ZM393 225V270H438V225H393ZM303 225V180H213V225H303ZM618 135H573V180H618V135ZM165 294V225Q167 155 214 118T324 81Q359 81 393 94V135H438V122Q484 165 484 231V294Q484 360 439 402T326 445T212 406T165 294ZM573 45H528V90H573V45ZM168
45V0H78V45H168Z" />
<glyph unicode="p" glyph-name="p" horiz-adv-x="650" d="M165 540V585H210V540H165ZM525 540H570V450H525V540ZM435 360H390V405H435V360ZM345 360V315H255V360H345ZM75 270H30V315H75V270ZM390 270V315H435V270H390ZM210 180H170Q186 135 227 108T328 81T435
119T482 231V300Q480 370 433 407T330 445T234 422T176 360H210V315H165V325Q162 310 162 294V231Q162 215 165 200V225H210V180ZM435 180V135H345V180H435ZM75 45H30V90H75V45ZM525 0V45H570V0H525ZM435 -45H390V0H435V-45ZM255 -45H210V0H255V-45ZM390 -180H345V-135H390V-180ZM570
-180H525V-135H570V-180ZM255 -225H210V-180H255V-225ZM162 -230H81V526H162V471Q229 526 324 526T491 464T563 294V231Q563 179 544 135H570V90H525V100Q492 52 438 26T323 0Q229 0 162 54V-230Z" />
<glyph unicode="q" glyph-name="q" horiz-adv-x="650" d="M213 540V585H258V540H213ZM438 540V585H483V540H438ZM78 495V540H123V495H78ZM618 405H573V450H618V405ZM78 360H33V405H78V360ZM438 360H393V405H437Q438 405 438 404V360ZM258 360H213V405H258V360ZM348
315V270H258V315H348ZM483 270H438V315H483V270ZM78 180H33V225H78V180ZM213 180H174Q189 131 231 106T326 81T420 108T477 180H438V225H483V205Q485 221 485 231V294Q485 362 438 404V405H437Q401 438 348 444V405H303V444Q213 433 179 360H213V315H168V321Q166
305 166 294V225Q166 216 168 204V225H213V180ZM438 135H393V180H438V135ZM303 180H348V90H303V180ZM78 90H33V135H78V90ZM123 0H78V45H123V0ZM393 -45H348V0H393V-45ZM483 -45H438V0H483V-45ZM618 -90H573V-45H618V-90ZM258 -90H213V-45H258V-90ZM123 -135H78V-90H123V-135ZM483
-135H438V-90H483V-135ZM393 -180H348V-135H393V-180ZM258 -225H213V-180H258V-225ZM485 -230V54Q419 0 327 0T168 52V45H123V90H130Q85 148 85 231V294Q85 402 156 464T325 526Q360 526 393 517V540H438V501Q467 487 485 472V526H566V-230H485Z" />
<glyph unicode="r" glyph-name="r" horiz-adv-x="650" d="M576 450V495H621V450H576ZM441 360H396V405H439L441 403V360ZM216 315V360H261V315H216ZM396 225H351V270H396V225ZM531 225H486V270H531V225ZM576 180V135H486V180H576ZM216 180H261V90H216V180ZM99
0V526H180V472Q196 486 216 496V540H261V514Q298 526 339 526Q434 526 494 466T554 295H473Q473 364 441 403V405H439Q404 445 339 445T227 406T180 294V0H99Z" />
<glyph unicode="s" glyph-name="s" horiz-adv-x="650" d="M573 495V540H618V495H573ZM78 495V540H123V495H78ZM78 405H33V450H78V405ZM618 360H573V405H618V360ZM393 315H348V360H393V315ZM528 315H483V360H528V315ZM573 270H528V315H573V270ZM78 270H33V315H78V270ZM213
180H168V225H213V180ZM618 180H573V225H618V180ZM123 180H78V225H123V180ZM438 135H393V180H438V135ZM303 180V135H213V180H303ZM393 90H348V135H393V90ZM120 354V360H78V405H123Q137 464 197 495T325 526Q421 526 483 473V495H573V450H505Q529 418 529 375H448Q448
410 393 431V405H348V443Q332 445 321 445T303 444V360H258V433Q201 413 201 375V354Q201 344 213 332V360H258V315H235Q258 302 288 302H411Q424 302 438 299V315H483V286Q556 252 556 168V161Q555 120 537 90H618V45H528V76Q517 61 497 45H528V0H483V36Q423 0
328 0T168 39V0H78V45H158Q93 89 93 168H174Q174 139 194 119T244 92Q292 81 309 81Q328 81 341 81T365 81T386 83T407 88T428 95T446 106T461 122Q475 141 475 163T458 203T406 221H348V180H303V221H284Q214 223 168 258V225H123V270H154Q120 302 120 354Z" />
<glyph unicode="t" glyph-name="t" horiz-adv-x="650" d="M573 675V720H618V675H573ZM393 675V720H438V675H393ZM33 630V675H78V630H33ZM528 540V585H573V540H528ZM348 540V585H393V540H348ZM168 540V585H213V540H168ZM390 81H396Q435 81 452 90H438V135H480Q484
163 484 222V263H565V219Q565 172 563 145T552 86T524 38Q483 0 396 0H390Q303 0 261 38Q229 68 223 146Q221 174 221 222V445H84V526H221V720H302V526H480V445H302V222Q302 131 316 106T390 81ZM573 450H528V495H573V450ZM78 360H33V405H78V360ZM393 360H348V405H393V360ZM528
360V405H573V360H528ZM213 315H168V360H213V315ZM483 270H438V315H483V270ZM618 225H573V270H618V225ZM348 225H303V270H348V225ZM213 180H168V225H213V180ZM78 135H33V180H78V135ZM393 135H348V180H393V135ZM618 45H573V90H618V45ZM213 45H168V90H213V45Z" />
<glyph unicode="u" glyph-name="u" horiz-adv-x="650" d="M303 535H348V445H303V535ZM573 490V535H618V490H573ZM33 490V535H78V490H33ZM438 445V490H483V445H438ZM213 445V490H258V445H213ZM566 -5H485V49Q419 -5 324 -5T157 56T85 226V521H166V226Q166 153 213
115T325 76Q356 76 383 85H348V130H393V89Q436 106 460 142T485 226V521H566V-5ZM438 355H393V400H438V355ZM618 310H573V355H618V310ZM213 310H168V355H213V310ZM78 265H33V310H78V265ZM393 310V265H303V310H393ZM438 175H393V220H438V175ZM213 175V220H258V175H213ZM303
130H258V175H303V130ZM618 40H573V85H618V40ZM78 40V85H123V40H78ZM168 -5H123V40H168V-5ZM483 -50H438V-5H483V-50Z" />
<glyph unicode="v" glyph-name="v" horiz-adv-x="650" d="M30 495V540H75V495H30ZM390 495V540H435V495H390ZM210 495V540H255V495H210ZM323 0H317Q300 3 290 15L89 352Q83 360 81 371V526H162V386L255 231V225H259L322 119L483 388V526H564V376Q564 362 554 350L354
15Q346 6 333 1H330Q328 0 323 0ZM210 405V450H255V405H210ZM435 405V450H480V405H435ZM345 405V360H255V405H345ZM345 360H390V270H345V360ZM525 225V270H570V225H525ZM300 225H259L255 231V270H300V225ZM120 180H75V225H120V180ZM300 180V225H345V180H300ZM570
135H525V180H570V135ZM120 135V180H165V135H120ZM120 90H75V135H120V90ZM525 135V90H435V135H525ZM210 45H165V90H210V45ZM480 0H435V45H480V0Z" />
<glyph unicode="w" glyph-name="w" horiz-adv-x="650" d="M573 495V540H618V495H573ZM33 495V540H78V495H33ZM393 495V540H438V495H393ZM213 540H258V450H213V540ZM411 0Q396 0 384 15Q384 17 381 20L348 75V0H303V77L273 26Q267 12 255 5Q245 0 239 0H229Q222
1 213 5Q201 13 197 25L90 202Q82 215 85 230V526H166V232L168 229V225H170L234 119L285 204V418H366V315H393V270H366V202L416 118L454 180H438V225H481L485 232V526H566V230Q569 215 561 202L452 21Q443 7 434 4Q433 4 429 2T417 0H411ZM348 450H303V495H348V450ZM483
405H438V450H483V405ZM618 360H573V405H618V360ZM213 360H168V405H213V360ZM438 315H393V360H438V315ZM78 315H33V360H78V315ZM258 315H213V360H258V315ZM483 270H438V315H483V270ZM213 225H170L168 229V270H258V180H213V225ZM78 225H33V270H78V225ZM438 225H393V270H438V225ZM618
180H573V225H618V180ZM78 90H33V135H123V45H78V90ZM528 135H573V45H528V135ZM339 90L325 113L311 90H339ZM78 0H33V45H78V0ZM528 0H483V45H528V0ZM168 0H123V45H168V0Z" />
<glyph unicode="x" glyph-name="x" horiz-adv-x="650" d="M573 495V540H618V495H573ZM33 495V540H78V495H33ZM258 495H213V540H303V450H258V495ZM393 495V540H438V495H393ZM573 405H528V450H573V405ZM78 450H123V360H78V450ZM438 225H483V180H430L557 0H457L326
186L194 0H94L189 135H168V180H213V168L253 225H213V270H258V232L276 257L85 526H185L271 405H303V360H302L326 327L380 405H303V450H393V423L466 526H566L376 257L393 232V270H438V225ZM618 360H573V405H618V360ZM483 360V405H528V360H483ZM168 315H123V360H168V315ZM78
270H33V315H78V270ZM438 270V315H483V270H438ZM168 270V315H213V270H168ZM528 270V315H618V270H573V225H483V270H528ZM123 225H78V270H168V180H123V225ZM78 135H33V180H78V135ZM528 135H483V180H528V135ZM618 135H573V180H618V135ZM348 90H303V135H348V90ZM303
45H393V0H258V90H303V45ZM573 45H528V90H573V45ZM123 45H78V90H123V45Z" />
<glyph unicode="y" glyph-name="y" horiz-adv-x="650" d="M573 495V540H618V495H573ZM213 495V540H258V495H213ZM303 450H258V495H303V450ZM78 450H33V495H78V450ZM393 450V495H438V450H393ZM618 360H573V405H618V360ZM303 405V360H213V405H303ZM78 315H33V360H78V315ZM393
315H348V360H393V315ZM573 225H528V270H573V225ZM303 180V225H348V180H303ZM573 180V135H483V180H573ZM168 180V135H78V180H168ZM213 0H168V45H213V0ZM483 45V0H393V45H483ZM123 0H78V45H123V0ZM528 0V45H573V0H528ZM258 -45H213V0H258V-45ZM168 -90V-45H213V-90H168ZM573
-135H528V-90H573V-135ZM123 -135H78V-90H123V-135ZM528 -180V-225H438V-180H528ZM123 -225H78V-180H123V-225ZM196 -230H156V-149H202Q257 -148 271 -122T285 -8V28L92 352Q83 362 83 371T84 385V526H165V386L181 360H213V315H208L325 119L415 270H393V315H438V309L484
386V526H565V376Q565 363 558 355L557 352L366 30V-34Q365 -84 360 -115T337 -176Q304 -230 196 -230Z" />
<glyph unicode="z" glyph-name="z" horiz-adv-x="650" d="M573 495H618V405H573V495ZM123 360V405H168V360H123ZM213 315H168V360H213V315ZM528 315V360H573V315H528ZM618 270H573V315H618V270ZM78 270H33V315H78V360H123V225H78V270ZM303 90V177L305 180H303V177L216
81H566V0H85V57L278 270H213V315H303V298L435 445H348V360H303V445H258V405H213V445H123V405H33V450H85V526H566V469L467 360H483V315H438V327L386 270H393V225H348V227L305 180H393V135H348V90H303ZM438 270H483V180H438V270ZM618 225V180H528V225H618ZM168 180H123V225H168V180ZM123
135H78V180H123V135ZM483 90H438V135H483V90ZM573 90H528V135H573V90Z" />
<glyph unicode="}" glyph-name="braceright" horiz-adv-x="605" />
<glyph unicode="~" glyph-name="asciitilde" horiz-adv-x="650" d="M616 472Q629 435 629 401T612 336Q578 280 507 255Q462 240 421 240Q377 240 340 268T283 351Q264 402 217 402Q198 402 166 390T120 351Q112 336 112 321T118 291L34 260Q21 297 21 331T38
396Q72 452 143 477Q188 492 229 492Q273 492 310 464T367 381Q386 330 433 330Q452 330 484 342T530 381Q538 396 538 411T532 441L616 472Z" />
</font>
</defs>
</svg>
