<?xml version="1.0" standalone="no"?> <!DOCTYPE svg PUBLIC "-//W3C//DTD SVG 1.0//EN" "http://www.w3.org/TR/2001/REC-SVG-20010904/DTD/svg10.dtd" > <svg xmlns="http://www.w3.org/2000/svg" width="100%" height="100%">
<defs >
<font id="zxx-bold-regular" horiz-adv-x="646" ><font-face
    font-family="ZXX Bold"
    units-per-em="1000"
    panose-1="0 0 0 0 0 0 0 0 0 0"
    ascent="770"
    descent="-230"
    alphabetic="0" />
<missing-glyph horiz-adv-x="500" d="M50 -230V720H450V-230H50ZM100 -180H400V670H100V-180Z" />
<glyph unicode=" " glyph-name="space" horiz-adv-x="650" />
<glyph unicode="!" glyph-name="exclam" horiz-adv-x="650" d="M382 236H268V720H382V236ZM242 0V167H408V0H242Z" />
<glyph unicode="&quot;" glyph-name="quotedbl" horiz-adv-x="650" d="M270 561H112L152 788H311L270 561ZM497 561H337L378 788H537L497 561Z" />
<glyph unicode="#" glyph-name="numbersign" horiz-adv-x="650" d="M248 265H387L403 396H264L248 265ZM469 0H355L374 151H234L215 0H101L120 151H61L75 265H133L149 396H73L87 510H163L182 662H296L277 510H417L436 662H550L531 510H590L576 396H518L502 265H578L564
151H488L469 0Z" />
<glyph unicode="$" glyph-name="dollar" horiz-adv-x="650" d="M268 385V533Q196 509 193 455Q194 432 216 410Q237 392 268 385ZM381 260V114Q453 136 455 189Q454 213 435 232T381 260ZM268 -80V-3Q208 6 162 38Q80 95 80 194V251H193V194Q193 136 268 114V269Q188
281 140 327Q80 381 80 451V459Q80 532 131 585T268 651V723H381V649Q456 635 506 591Q569 536 569 451V394H456V451Q456 489 422 514H421Q404 526 381 532V376Q457 366 509 319T567 205Q569 199 569 194V186Q569 112 516 59T381 -5V-80H268Z" />
<glyph unicode="%" glyph-name="percent" horiz-adv-x="650" d="M532 45Q487 0 425 0T317 44T270 152Q270 170 275 192L186 85H52L293 373Q262 357 225 357Q163 357 118 402Q73 449 73 511T118 617T225 662T333 618T378 511Q378 488 372 467L464 577H598L357 290Q392
305 424 305Q487 305 531 261T576 152T532 45ZM156 482T177 461T226 440T275 460T296 509T275 558T226 580T177 560T156 511ZM353 126T375 105T424 83T472 103T493 152T473 202T425 223T375 202T353 153Z" />
<glyph unicode="&amp;" glyph-name="ampersand" horiz-adv-x="650" d="M307 0Q208 0 140 59Q62 125 62 237Q62 297 89 347T166 426Q148 465 148 524T181 624Q218 672 290 672T399 628T436 521T414 420T361 362L438 245V379H552V237Q552 169 523 118L542 89L575
43L530 12Q530 10 529 10L528 9H527L483 -23L452 19Q452 21 449 24L441 35Q383 0 307 0ZM292 457Q312 458 317 468T322 491T322 511V520Q322 558 292 558Q276 558 269 548T262 521T262 492T267 469T292 457ZM176 174T215 144T301 113T378 130L242 335Q176 312 176
237Q176 174 215 144Z" />
<glyph unicode="(" glyph-name="parenleft" horiz-adv-x="650" d="M476 -82H418Q321 -78 247 -2Q176 76 174 184V467Q174 578 250 660Q322 732 418 732H476V618H418Q367 618 328 573T288 453V197Q288 123 327 78T418 32H476V-82Z" />
<glyph unicode=")" glyph-name="parenright" horiz-adv-x="650" d="M174 -82V32H232Q283 32 322 77T362 197V453Q362 527 323 572T232 618H174V732H232Q328 732 400 660Q476 578 476 467V184Q474 76 403 -2Q329 -78 232 -82H174Z" />
<glyph unicode="*" glyph-name="asterisk" horiz-adv-x="650" d="M382 216H269V322L194 247L114 327L189 402H82V515H189L114 590L194 670L269 595V701H382V595L457 670L536 590L461 515H568V402H461L536 327L457 247L382 321V216Z" />
<glyph unicode="+" glyph-name="plus" horiz-adv-x="650" d="M382 91H269V285H91V398H269V592H382V398H559V285H382V91Z" />
<glyph unicode="," glyph-name="comma" horiz-adv-x="650" d="M194 -160H133V-38H194Q236 -38 250 -27Q259 -18 263 0H238V181H420V0H386Q378 -74 345 -111Q298 -160 194 -160Z" />
<glyph unicode="-" glyph-name="hyphen" horiz-adv-x="650" d="M458 263H192V377H458V263Z" />
<glyph unicode="." glyph-name="period" horiz-adv-x="650" d="M416 0H235V181H416V0Z" />
<glyph unicode="/" glyph-name="slash" horiz-adv-x="650" d="M210 0H74L440 662H576L210 0Z" />
<glyph unicode="0" glyph-name="zero" horiz-adv-x="650" d="M79 265V400Q79 540 150 613Q197 658 259 664H390Q453 658 498 613Q570 543 570 400V265Q568 153 521 81Q472 9 390 0H259Q177 9 128 81T79 265ZM277 113H371Q403 113 426 140Q456 173 456 278V386Q456
485 432 518T371 551H277Q246 551 222 524Q193 492 193 386V278Q193 179 217 146T277 113Z" />
<glyph unicode="1" glyph-name="one" horiz-adv-x="650" d="M570 0H80V114H319V544L126 491V606L335 664H433V114H570V0Z" />
<glyph unicode="2" glyph-name="two" horiz-adv-x="650" d="M80 0V81L454 449Q448 492 416 521T329 550T234 520T194 427V370H80V427Q80 538 154 601T324 664T493 604T570 436Q570 404 555 386L276 114H456V251H570V0H80Z" />
<glyph unicode="3" glyph-name="three" horiz-adv-x="650" d="M325 0Q230 0 163 47Q80 102 80 202H194Q194 161 232 138T323 114T416 137T456 196T421 253T334 276H267V390H334Q385 390 420 412T456 469T419 527T326 550T232 527T194 462H80Q80 556 158 614Q227
664 324 664H334Q444 664 507 606T570 468T505 334Q530 313 541 300Q570 268 570 191T502 57T334 0H325Z" />
<glyph unicode="4" glyph-name="four" horiz-adv-x="650" d="M567 0H453V137H122L84 222L485 664H567V0ZM453 251V461L264 251H453Z" />
<glyph unicode="5" glyph-name="five" horiz-adv-x="650" d="M325 0Q228 0 154 62T80 237V294H194V237Q194 174 233 144T328 114T422 149Q456 185 456 242T425 338T334 377H80V664H570V550H194V491H349Q453 485 514 409Q570 341 570 245V237Q570 128 494 60Q429
0 334 0H325Z" />
<glyph unicode="6" glyph-name="six" horiz-adv-x="650" d="M325 664Q368 664 415 650Q458 634 493 605Q570 536 570 427V370H541Q569 320 569 254V247Q570 243 570 237Q570 123 487 55Q423 0 333 0H320Q228 2 157 61T80 223V444L81 447Q89 548 159 606T325 664ZM333
493H338Q401 493 451 464Q443 498 418 519Q382 550 332 550T244 529T197 462Q257 493 333 493ZM194 237Q194 175 233 145T324 114T415 143Q455 180 455 243T422 343Q417 346 416 350Q378 379 326 379T234 350T193 260V247Q194 243 194 237Z" />
<glyph unicode="7" glyph-name="seven" horiz-adv-x="650" d="M462 550H85V664H576V441Q576 417 561 396L224 0H75L462 455V550Z" />
<glyph unicode="8" glyph-name="eight" horiz-adv-x="650" d="M316 0Q208 0 141 59Q80 117 80 194V202Q80 210 81 213Q91 286 145 333Q123 350 106 377Q80 423 80 462V470Q80 548 143 606T316 664H334Q444 664 507 606T570 470V462Q570 420 543 377Q528 351 505
333Q559 286 569 213Q570 210 570 202V194Q570 117 509 59Q441 0 334 0H316ZM334 390Q385 390 420 412T456 469T419 527T326 550T233 527T194 469T229 412T316 390H334ZM194 157T233 136T326 114T417 137T456 194T421 251T334 274H316Q264 274 229 252T194 193Z"
/>
<glyph unicode="9" glyph-name="nine" horiz-adv-x="650" d="M251 0V114H307Q442 114 455 206Q398 173 325 173H316Q224 173 162 229L158 231Q80 300 80 410V427Q80 527 146 593Q212 664 316 664H325Q421 664 489 607Q564 546 570 443V229Q570 179 553 134Q534
90 499 61Q427 0 307 0H251ZM228 323Q264 287 321 287T417 317T456 410V427Q456 487 419 518T325 550T230 516Q194 480 194 420T228 323Z" />
<glyph unicode=":" glyph-name="colon" horiz-adv-x="650" d="M423 439H227V634H423V439ZM227 40V235H423V40H227Z" />
<glyph unicode=";" glyph-name="semicolon" horiz-adv-x="650" d="M423 435H227V630H423V435ZM190 -117H129V5H190Q230 5 241 12T257 36H227V232H423V36H382Q373 -34 339 -70Q290 -117 190 -117Z" />
<glyph unicode="=" glyph-name="equal" horiz-adv-x="650" d="M559 386H91V500H559V386ZM559 213H91V327H559V213Z" />
<glyph unicode="?" glyph-name="question" horiz-adv-x="650" d="M337 202H299V203Q239 209 210 246T175 334L174 353Q174 425 218 461T325 497Q343 497 359 505Q381 518 381 545T366 589T325 606T285 589T270 544H156Q156 610 192 659Q237 720 324 720T459 659Q494
612 494 545T446 430T325 383Q288 383 288 353Q288 315 318 315T348 353H462Q462 291 430 250T337 203V202ZM352 0T318 0T260 25T235 83T259 143Q283 167 318 167T377 143T401 84T377 25Z" />
<glyph unicode="@" glyph-name="at" horiz-adv-x="650" d="M240 427Q294 479 364 479T486 432Q475 482 436 517T350 553Q279 553 233 494T186 342Q186 328 188 301Q188 375 240 427ZM304 276T322 258T366 239T410 257T429 300T410 345Q389 364 365 364T323 346T304
302ZM425 -34H349V-33Q294 -30 242 -2T148 82Q73 186 73 342Q73 404 91 462T143 565Q184 616 230 638Q286 667 349 667H352Q462 665 534 578Q567 542 584 494Q602 449 602 402Q602 302 544 218V115H430V133Q401 123 366 123H361Q292 125 240 175Q210 205 198 243Q211
190 235 156Q283 80 368 80H425V-34Z" />
<glyph unicode="A" glyph-name="A" horiz-adv-x="650" d="M401 216L327 432L252 216H401ZM211 102L177 0H60Q108 141 287 664H366Q545 141 593 0H476L442 102H211Z" />
<glyph unicode="B" glyph-name="B" horiz-adv-x="650" d="M84 0V664H352Q447 663 510 606T574 468T509 333Q574 279 574 199T510 60T352 0H84ZM198 390H338Q390 390 425 413T460 471T425 527T338 550H198V390ZM198 116H338Q389 116 424 139T460 195T428 252T338
276H198V116Z" />
<glyph unicode="C" glyph-name="C" horiz-adv-x="650" d="M569 237Q569 126 495 63T326 0T158 59Q84 122 80 222V444Q86 548 161 608Q229 664 325 664T492 605Q569 537 569 427V408H456V427Q456 483 420 516T328 550T233 520T193 427V237Q193 175 232 145T324
114T416 144T456 237V256H569V237Z" />
<glyph unicode="D" glyph-name="D" horiz-adv-x="650" d="M84 0V664H346Q397 664 443 634T521 550Q573 461 573 332T521 115Q453 0 346 0H84ZM337 114Q388 114 423 171Q460 237 460 330T426 486Q393 550 337 550H196V114H337Z" />
<glyph unicode="E" glyph-name="E" horiz-adv-x="650" d="M574 0H84V662H574V548H198V388H437V274H198V114H574V0Z" />
<glyph unicode="F" glyph-name="F" horiz-adv-x="650" d="M198 0H84V662H574V548H198V423H505V309H198V0Z" />
<glyph unicode="G" glyph-name="G" horiz-adv-x="650" d="M569 128T497 64T325 0T152 63T80 222V444Q80 538 153 601T326 664T498 596T570 427H456Q456 483 419 516T327 550T233 520T194 427V237Q194 175 233 145T324 114T416 144T456 237V241H285V354H570V222Q569
128 497 64Z" />
<glyph unicode="H" glyph-name="H" horiz-adv-x="650" d="M574 0H460V311H198V0H84V664H198V425H460V664H574V0Z" />
<glyph unicode="I" glyph-name="I" horiz-adv-x="650" d="M574 0H84V114H272V550H84V664H574V550H386V114H574V0Z" />
<glyph unicode="J" glyph-name="J" horiz-adv-x="650" d="M571 136T500 68T326 0T153 68T81 237V294H195V237Q195 175 234 145T325 114T417 144T457 237V550H218V664H571V237Q571 136 500 68Z" />
<glyph unicode="K" glyph-name="K" horiz-adv-x="650" d="M198 0H84V664H198V390H205L444 664H597L308 333L597 0H444L205 276H198V0Z" />
<glyph unicode="L" glyph-name="L" horiz-adv-x="650" d="M574 1H84V665H198V115H574V1Z" />
<glyph unicode="M" glyph-name="M" horiz-adv-x="650" d="M570 0H456V264L377 0H274L194 264V0H80V664H189L324 214L462 664H570V0Z" />
<glyph unicode="N" glyph-name="N" horiz-adv-x="650" d="M570 0H464L194 436V0H80V664H185L456 229V664H570V0Z" />
<glyph unicode="O" glyph-name="O" horiz-adv-x="650" d="M420 0T325 0T167 59Q80 143 80 332T167 604Q231 664 325 664T483 604Q570 520 570 332T483 59Q420 0 325 0ZM266 114T325 114T414 153Q456 204 456 331T414 512Q383 550 325 550T236 512Q194 458 194
331T236 153Q266 114 325 114Z" />
<glyph unicode="P" glyph-name="P" horiz-adv-x="650" d="M80 0V664H349Q444 664 507 591T570 418T506 246T349 173H194V0H80ZM194 287H334Q393 287 424 325T456 417T426 510T334 550H194V287Z" />
<glyph unicode="Q" glyph-name="Q" horiz-adv-x="650" d="M171 0Q131 0 100 31T69 103V562Q69 605 98 634T171 664H456Q499 664 529 635T559 562V229Q559 199 535 182L500 158Q549 90 581 44L490 -22Q446 39 408 92L284 0H171ZM445 551H183V114H245L342 184L251
310L292 339Q300 345 302 346T306 349L345 376L434 250L445 258V551Z" />
<glyph unicode="R" glyph-name="R" horiz-adv-x="650" d="M192 285H332Q391 285 422 324T454 417T424 510T332 550H192V285ZM192 0H78V664H347Q441 664 504 591T568 417Q568 350 537 292T454 203L572 0H439L341 171H192V0Z" />
<glyph unicode="S" glyph-name="S" horiz-adv-x="650" d="M324 0Q220 0 150 58T80 202V219H194V202Q194 164 232 139T324 114Q456 114 456 197Q456 236 422 256T334 276H293Q200 276 140 330T80 465T142 604T316 664H324Q426 664 498 606T570 462V444H456V462Q456
501 419 525T325 550T231 530T194 469T228 410T316 390H334Q435 390 502 340T569 200T506 56T334 0H324Z" />
<glyph unicode="T" glyph-name="T" horiz-adv-x="650" d="M382 0H268V550H194V402H80V664H570V402H456V550H382V0Z" />
<glyph unicode="U" glyph-name="U" horiz-adv-x="650" d="M456 1V35Q396 1 324 1Q227 1 157 63T80 222V665H194V238Q194 175 233 145T325 115T417 145T456 238V665H570V1H456Z" />
<glyph unicode="V" glyph-name="V" horiz-adv-x="650" d="M80 475V665H194V484L325 173L457 486V665H571V475Q571 464 420 116L369 0H281Q80 460 80 475Z" />
<glyph unicode="W" glyph-name="W" horiz-adv-x="650" d="M80 484V664H194V475L241 278L268 380V441H382V380L408 278Q456 473 456 475V664H570V484L467 -2H353L325 163L296 -2H182Q80 471 80 484Z" />
<glyph unicode="X" glyph-name="X" horiz-adv-x="650" d="M595 0H464L326 225L189 0H56L260 333L56 664H189L326 440L464 664H595L392 333L595 0Z" />
<glyph unicode="Y" glyph-name="Y" horiz-adv-x="650" d="M382 0H268V269L80 411V664H194V462L324 366L456 462V664H570V413L382 269V0Z" />
<glyph unicode="Z" glyph-name="Z" horiz-adv-x="650" d="M570 0H80V51Q80 54 80 64T90 89L405 550H194V413H80V664H570V613Q570 610 570 600T560 575L245 114H456V251H570V0Z" />
<glyph unicode="[" glyph-name="bracketleft" horiz-adv-x="650" d="M502 -82H149V732H502V618H263V32H502V-82Z" />
<glyph unicode="\" glyph-name="backslash" horiz-adv-x="650" d="M210 662L576 0H440L74 662H210Z" />
<glyph unicode="]" glyph-name="bracketright" horiz-adv-x="650" d="M502 732V-82H149V32H388V618H149V732H502Z" />
<glyph unicode="_" glyph-name="underscore" horiz-adv-x="650" d="M570 0H80V114H570V0Z" />
<glyph unicode="a" glyph-name="a" horiz-adv-x="650" d="M325 114Q393 114 421 133Q448 149 448 194T417 256Q392 271 325 271H316Q249 271 222 255T194 194T220 132T316 114H325ZM325 0H316Q203 0 142 50Q80 101 80 193T141 335T316 385Q379 385 417 364T457
321Q456 362 425 387T358 412H148V526H358Q455 526 511 465Q539 436 555 393Q570 345 570 292V0H456V34Q380 0 325 0Z" />
<glyph unicode="b" glyph-name="b" horiz-adv-x="650" d="M194 174T233 144T324 114T416 144T456 237V295Q456 350 419 384T327 418T233 388T194 295V237Q194 174 233 144ZM570 228Q569 223 569 222Q563 119 492 60T324 0Q253 0 194 34V0H80V720H194V498Q253 532
324 532Q422 532 492 473Q568 407 570 299V228Z" />
<glyph unicode="c" glyph-name="c" horiz-adv-x="650" d="M193 232L194 227Q194 172 226 145Q240 133 270 124T342 114H570V0H342Q223 0 151 61H150Q80 121 80 227V299Q80 408 157 473Q192 504 235 517Q277 532 324 532Q423 532 492 472Q570 405 570 295V276H456V295Q456
350 419 384T327 418T233 388T194 295V236L193 232Z" />
<glyph unicode="d" glyph-name="d" horiz-adv-x="650" d="M456 0V34Q396 0 325 0Q230 0 158 59T80 222V299Q82 409 158 473Q228 532 324 532Q396 532 456 498V720H570V0H456ZM272 114T325 114T417 144T456 237V295Q456 350 419 384T327 418T233 388T194 295V237Q194
174 233 144Z" />
<glyph unicode="e" glyph-name="e" horiz-adv-x="650" d="M202 179Q233 115 342 115H570V1H342Q223 1 151 62Q116 91 97 135Q80 180 80 228V300Q82 408 158 474Q196 506 236 518Q278 533 325 533Q423 533 493 473Q570 405 570 296V179H202ZM194 292H456V296Q456
351 419 385T327 419T233 389T194 296V292Z" />
<glyph unicode="f" glyph-name="f" horiz-adv-x="650" d="M570 0H80V114H209V412H80V526H210Q210 619 251 669T386 720H570V607H386Q336 607 328 581Q323 564 323 548V526H490V412H323V114H570V0Z" />
<glyph unicode="g" glyph-name="g" horiz-adv-x="650" d="M570 5Q570 -109 499 -170H498Q426 -231 307 -231H251V-117H307Q349 -117 379 -107T424 -83T446 -50Q456 -24 456 5V28Q396 -6 324 -6Q225 -6 153 57T80 230V289Q80 401 156 466Q191 496 235 511Q273 526
334 526T456 492V526H570V5ZM194 171T232 140T326 108T419 142T456 230V289Q456 344 419 378T327 413T233 383T194 289V230Q194 171 232 140Z" />
<glyph unicode="h" glyph-name="h" horiz-adv-x="650" d="M570 0H456V295Q456 350 420 384T328 418T233 388T194 295V0H80V720H194V497Q252 532 324 532Q367 532 411 518T493 472Q570 404 570 295V0Z" />
<glyph unicode="i" glyph-name="i" horiz-adv-x="650" d="M405 561H245V720H405V561ZM570 0H80V114H268V412H118V526H382V114H570V0Z" />
<glyph unicode="j" glyph-name="j" horiz-adv-x="650" d="M490 560H330V720H490V560ZM205 -230H106V-116H205Q353 -116 353 -3V413H165V526H467V-3Q467 -104 394 -167T205 -230Z" />
<glyph unicode="k" glyph-name="k" horiz-adv-x="650" d="M180 0H66V720H180V297L415 526H577L328 284L584 0H432L248 205L180 136V0Z" />
<glyph unicode="l" glyph-name="l" horiz-adv-x="650" d="M570 0H80V114H268V607H80V720H382V114H570V0Z" />
<glyph unicode="m" glyph-name="m" horiz-adv-x="650" d="M194 0H80V304Q80 394 92 434T143 503T233 531T324 501Q368 531 418 531T506 504T557 436T570 304V0H456V304Q456 375 450 394T419 416Q395 414 389 395T382 304V0H268V304Q268 374 261 394T230 416Q207
414 201 395T194 304V0Z" />
<glyph unicode="n" glyph-name="n" horiz-adv-x="650" d="M570 0H456V295Q456 358 417 388T323 418T231 384T194 295V0H80V295Q80 407 157 473Q196 505 236 517Q278 532 325 532Q420 532 493 473Q570 405 570 295V0Z" />
<glyph unicode="o" glyph-name="o" horiz-adv-x="650" d="M422 0T324 0T153 63T80 236V299Q82 408 158 474Q194 503 237 517T324 532Q421 532 492 474Q568 408 570 299V236Q570 126 496 63ZM194 177T232 146T326 114T419 148T456 236V295Q456 350 419 384T327
418T233 388T194 295V236Q194 177 232 146Z" />
<glyph unicode="p" glyph-name="p" horiz-adv-x="650" d="M194 177T230 143T323 108T417 139T456 230V289Q456 352 417 382T323 413T231 379T194 289V230Q194 177 230 143ZM194 -230H80V526H194V492Q252 526 325 526Q425 526 497 463T570 289V230Q570 120 497
57T325 -6Q254 -6 194 28V-230Z" />
<glyph unicode="q" glyph-name="q" horiz-adv-x="650" d="M570 -230H456V28Q398 -6 324 -6Q226 -6 153 57T80 230V289Q80 400 157 466Q226 526 324 526Q397 526 456 491V526H570V-230ZM194 171T232 140T326 108T419 142T456 230V289Q456 344 419 378T327 413T233
383T194 289V230Q194 171 232 140Z" />
<glyph unicode="r" glyph-name="r" horiz-adv-x="650" d="M209 0H95V526H209V497Q267 532 340 532Q383 532 425 517T496 471Q560 410 560 296V277H447V296Q447 418 340 418Q287 418 248 388T209 295V0Z" />
<glyph unicode="s" glyph-name="s" horiz-adv-x="650" d="M457 24Q401 0 326 0T190 26Q88 72 88 177H202Q202 140 253 123Q286 113 330 113H343Q447 113 447 177Q447 190 433 199T401 208H290Q223 208 175 239Q113 279 113 352V371Q113 411 135 446Q156 476 189
495Q249 532 325 532T459 495Q494 476 513 446Q535 414 535 371H422Q422 387 391 402T324 418T258 404T227 371V352Q229 343 247 332T290 321H401Q466 321 513 284T561 177Q561 67 457 24Z" />
<glyph unicode="t" glyph-name="t" horiz-adv-x="650" d="M386 0Q272 0 234 66Q209 111 209 227V412H80V526H209V720H323V526H490V412H323V227Q323 147 336 132Q353 114 386 114H392Q436 114 446 138T456 227V285H570V227Q570 109 544 66Q506 0 392 0H386Z" />
<glyph unicode="u" glyph-name="u" horiz-adv-x="650" d="M570 0H456V34Q396 0 324 0Q226 0 153 63T80 236V526H194V236Q194 176 232 145T326 114T419 148T456 236V526H570V0Z" />
<glyph unicode="v" glyph-name="v" horiz-adv-x="650" d="M80 387V532H194V387L325 147L457 388V532H571V387Q571 376 420 94L369 0H281Q80 371 80 387Z" />
<glyph unicode="w" glyph-name="w" horiz-adv-x="650" d="M80 238V526H194V243L239 147L268 216V431H382V214L410 146L456 243V526H570V238Q570 226 488 56L460 0H361L324 89L292 0H187Q80 225 80 238Z" />
<glyph unicode="x" glyph-name="x" horiz-adv-x="650" d="M579 0H439L325 162L212 0H71L256 254L63 526H203L325 353L447 526H588L396 254L579 0Z" />
<glyph unicode="y" glyph-name="y" horiz-adv-x="650" d="M149 -230V-116H205Q251 -116 260 -99T269 -3V29L81 369V526H195V373L326 154L457 373V526H571V368L383 29V-28Q381 -129 353 -172Q311 -230 205 -230H149Z" />
<glyph unicode="z" glyph-name="z" horiz-adv-x="650" d="M570 0H80V80L386 412H80V526H570V446L264 114H570V0Z" />
<glyph unicode="}" glyph-name="braceright" horiz-adv-x="605" />
<glyph unicode="~" glyph-name="asciitilde" horiz-adv-x="650" d="M486 243Q446 229 405 229T330 254Q292 280 271 335Q260 366 234 366Q226 366 204 360Q164 344 164 316Q164 308 168 298L174 280L67 240L61 258Q49 291 49 321T62 379Q90 439 164 466Q203 480
244 480T321 454T379 374Q389 343 416 343Q430 343 451 350T479 371T486 392T482 411L475 429L583 469L589 451Q601 418 601 387T587 328Q559 269 486 243Z" />
</font>
</defs>
</svg>
