<?xml version="1.0" standalone="no"?> <!DOCTYPE svg PUBLIC "-//W3C//DTD SVG 1.0//EN" "http://www.w3.org/TR/2001/REC-SVG-20010904/DTD/svg10.dtd" > <svg xmlns="http://www.w3.org/2000/svg" width="100%" height="100%">
<defs >
<font id="zxx-xed" horiz-adv-x="646" ><font-face
    font-family="ZXX Xed"
    units-per-em="1000"
    panose-1="0 0 0 0 0 0 0 0 0 0"
    ascent="770"
    descent="-230"
    alphabetic="0" />
<missing-glyph horiz-adv-x="500" d="M50 -230V720H450V-230H50ZM100 -180H400V670H100V-180Z" />
<glyph unicode=" " glyph-name="space" horiz-adv-x="650" d="M650 0L325 248L0 0V30L305 263L0 496V526L325 278L650 526V496L345 263L650 30V0Z" />
<glyph unicode="!" glyph-name="exclam" horiz-adv-x="650" d="M365 200H284V217L0 0V30L284 247V279L0 496V526L284 309V675H365V309L650 526V496L365 279V247L650 30V0L365 217V200ZM256 0V138H393V0H256Z" />
<glyph unicode="&quot;" glyph-name="quotedbl" horiz-adv-x="650" d="M492 577H363L399 778H528L492 577ZM123 577L159 778H287L251 577H123ZM650 0L325 248L0 0V30L305 263L0 496V526L325 278L650 526V496L345 263L650 30V0Z" />
<glyph unicode="#" glyph-name="numbersign" horiz-adv-x="650" d="M163 402L165 421H138L163 402ZM325 278L427 356L435 421H246L237 345L325 278ZM414 242L423 323L345 263L372 242H414ZM278 242L305 263L234 318L225 242H278ZM333 242L325 248L317 242H333ZM215
161L195 0H114L126 96L0 0V30L130 129L134 161H71L81 242H144L160 374L98 421H84L85 431L0 496V526L89 458L94 502H175L195 664H276L256 502H445L465 664H546L526 502H589L586 477L650 526V496L582 444L579 421H552L513 391L495 242H576L566 161H485L484 157L650
30V0L481 129L465 0H384L404 161H215Z" />
<glyph unicode="$" glyph-name="dollar" horiz-adv-x="650" d="M284 366V572Q233 563 199 535T165 465Q167 429 197 401T284 366ZM484 420V465Q481 516 439 543Q408 565 365 571V363Q394 360 422 352L511 420H484ZM480 160Q484 168 484 182Q482 217 453 245T368
281L365 279V247L480 160ZM365 76L366 77Q441 89 470 137L365 217V76ZM284 76V217L179 137Q208 90 284 76ZM565 187V178Q565 140 549 107L650 30V0L537 86Q485 4 365 -8V-85H284V-6Q217 1 164 37Q134 58 114 87L0 0V30L102 108Q84 144 84 187V227H165V182Q167 166
169 159L284 247V279L276 285Q200 294 152 333T89 428L0 496V526L84 462V469Q84 538 137 592T284 655V730H365V653Q450 643 507 592T565 461L650 526V496L565 431V420H550L449 342Q500 320 529 281T564 195Q565 193 565 187Z" />
<glyph unicode="%" glyph-name="percent" horiz-adv-x="650" d="M250 449T272 470T294 522T272 574T221 596T169 575T147 523T168 471T220 449ZM431 0Q373 0 331 42T288 143T331 243L325 248L256 196L168 90H118L0 0V30L79 90H78L255 301L0 496V526L97 452Q78
485 78 523Q78 581 119 622T220 664T320 623T362 523T320 422T220 380Q201 380 186 384L270 320L483 574H573L326 279L650 526V496L345 263L350 259Q386 284 438 284T531 243T573 142Q573 119 565 95L650 30V0L555 73Q536 40 503 20T431 0ZM504 142Q504 173 483
194T431 216Q420 216 410 213L504 141V142ZM387 201Q357 178 357 146T379 91T427 69T472 82T499 115L387 201Z" />
<glyph unicode="&amp;" glyph-name="ampersand" horiz-adv-x="650" d="M248 532V529Q248 521 248 512V492Q248 475 260 460T294 444T325 451T341 463T349 481Q353 498 352 518V532Q352 567 336 579T304 592T279 589T258 571T248 532ZM293 303L256 358Q245 355
231 350L293 303ZM157 230Q157 190 172 161L305 263L208 337Q157 301 157 230ZM316 79Q378 79 420 111L333 242L325 248L184 140Q229 79 316 79ZM465 43Q400 -2 311 -2T152 56Q131 74 119 91L0 0V30L106 111Q76 162 76 230Q76 326 141 388L0 496V526L160 404Q171
411 193 423Q167 466 167 529T199 632T300 673H306Q370 671 401 631T433 530T410 429T344 372L379 319L650 526V496L392 299L470 183Q476 204 476 230V361H557V224Q556 166 532 120L650 30V0L531 91L573 29L541 6L540 5H539L508 -18L465 43Z" />
<glyph unicode="(" glyph-name="parenleft" horiz-adv-x="650" d="M265 232L305 263L265 294V232ZM465 -9V-90H424Q336 -88 267 -22T186 142L0 0V30L184 170V356L0 496V526L184 386V474Q183 589 257 662T424 736H465V655H424Q361 655 313 601T265 459V324L325
278L650 526V496L345 263L650 30V0L325 248L265 202V187Q265 100 313 46T424 -9H465Z" />
<glyph unicode=")" glyph-name="parenright" horiz-adv-x="650" d="M384 233V293L345 263L384 233ZM184 -90V-9H225Q288 -9 336 45T384 187V203L325 248L0 0V30L305 263L0 496V526L325 278L384 323V459Q384 546 336 600T225 655H184V736H225Q317 736 391 663T465
474V385L650 526V496L465 355V171L650 30V0L463 143Q452 46 383 -21T225 -90H184Z" />
<glyph unicode="*" glyph-name="asterisk" horiz-adv-x="650" d="M190 381L228 419H140L190 381ZM460 381L510 419H422L460 381ZM285 309V362L255 332L285 309ZM366 309L396 332L366 362V309ZM87 419V430L0 496V526L87 460V500H228L129 599L186 656L285 557V697H366V557L465
656L521 599L422 500H563V460L650 526V496L563 430V419H549L477 364L521 320L465 263L413 315L366 279V247L650 30V0L359 222H291L0 0V30L285 247V279L238 315L186 263L129 320L173 364L101 419H87Z" />
<glyph unicode="+" glyph-name="plus" horiz-adv-x="650" d="M366 95H285V217L0 0V30L285 247V279L256 301H96V382H149L0 496V526L189 382H285V588H366V382H461L650 526V496L501 382H554V301H394L366 279V247L650 30V0L366 217V95Z" />
<glyph unicode="," glyph-name="comma" horiz-adv-x="650" d="M650 0L325 248L0 0V30L305 263L0 496V526L325 278L650 526V496L345 263L650 30V0ZM185 -170H140V-80H191Q239 -79 258 -63T281 0H252V153H405V0H371Q365 -87 327 -128T185 -170Z" />
<glyph unicode="-" glyph-name="hyphen" horiz-adv-x="650" d="M325 278L328 280H322L325 278ZM204 280V340L0 496V526L216 361H434L650 526V496L447 341V280H367L345 263L650 30V0L325 248L0 0V30L305 263L283 280H204Z" />
<glyph unicode="." glyph-name="period" horiz-adv-x="650" d="M650 0L325 248L0 0V30L305 263L0 496V526L325 278L650 526V496L345 263L650 30V0ZM248 0V153H401V0H248Z" />
<glyph unicode="/" glyph-name="slash" horiz-adv-x="650" d="M191 0H92L159 121L0 0V30L188 173L258 299L0 496V526L269 321L459 664H558L359 304L650 526V496L345 263L650 30V0L327 246L191 0Z" />
<glyph unicode="0" glyph-name="zero" horiz-adv-x="650" d="M165 370V270Q165 207 178 165L305 263L165 370ZM485 277V370L345 263L472 165L473 167Q485 212 485 277ZM275 81H380Q440 84 464 142L325 248L186 142Q213 81 275 81ZM375 583H270Q168 579 165 400L325
278L485 400Q482 583 375 583ZM375 0H270Q174 4 123 94L0 0V30L112 116Q84 181 84 263V402Q84 422 85 431L0 496V526L87 460Q99 555 149 609T275 664H380Q454 662 503 608T563 459L650 526V496L565 432Q566 422 566 402V263Q566 181 538 116L650 30V0L527 94Q475
1 375 0Z" />
<glyph unicode="1" glyph-name="one" horiz-adv-x="650" d="M339 81V237L325 248L106 81H339ZM420 81H544L420 176V81ZM85 0V65L0 0V30L305 263L0 496V526L325 278L339 289V583L134 526V607L339 664H420V350L650 526V496L420 320V206L650 30V0L566 64V0H85Z" />
<glyph unicode="2" glyph-name="two" horiz-adv-x="650" d="M143 432V417L304 294L461 449Q457 508 414 545T304 583T190 544T143 432ZM462 81V143L352 228L201 81H462ZM62 0V35Q61 41 62 45V47L0 0V30L155 148L287 277L136 392H62V448L0 496V526L66 476Q80 565
148 614T306 664T468 606T543 444L650 526V496L537 410Q536 407 532 403L369 244L462 173V227H543V112L650 30V0L543 82V0H62Z" />
<glyph unicode="3" glyph-name="three" horiz-adv-x="650" d="M231 373H335Q405 373 444 403T485 474Q482 523 439 553T329 583T214 554T166 469V428H128L231 350V373ZM343 292H307L325 278L343 292ZM479 161Q485 176 485 190Q483 224 456 251T378 288L345 263L479
161ZM203 111T242 96T325 81T408 96T467 139L325 248L183 140Q203 111 242 96ZM566 195V186Q566 144 547 109L650 30V0L534 88Q471 0 335 0H321Q189 3 118 90L0 0V30L106 111Q85 148 85 195V236H166V190Q167 175 172 161L305 263L267 292H231V320L89 428H85V431L0
496V526L85 461V475Q87 563 158 613T325 664H335Q443 664 504 609T566 478V469Q566 464 565 461L650 526V496L557 425Q538 369 484 332Q557 284 565 204Q566 201 566 195Z" />
<glyph unicode="4" glyph-name="four" horiz-adv-x="650" d="M325 278L486 401V520L289 305L325 278ZM486 227V371L345 263L392 227H486ZM258 227L305 263L273 287L218 227H258ZM353 227L325 248L297 227H353ZM567 0H486V125L459 146H191L0 0V30L152 146H126L96
213L209 336L0 496V526L225 354L509 664H567V463L650 526V496L567 433V93L650 30V0L567 63V0Z" />
<glyph unicode="5" glyph-name="five" horiz-adv-x="650" d="M436 363Q398 401 334 401H164L325 278L436 363ZM470 168Q484 196 484 249T452 345L345 263L470 168ZM565 241V232Q565 166 537 116L650 30V0L524 96Q510 76 491 59Q429 0 334 0H320Q195 3 125 95L0
0V30L112 116Q84 167 84 232V273H165V226Q167 190 178 166L305 263L124 401H84V432L0 496V526L84 462V664H565V583H165V482H348Q443 476 501 412L650 526V496L516 394Q565 330 565 241ZM325 81Q396 81 442 124Q454 138 458 146L325 248L190 145Q234 81 325 81Z"
/>
<glyph unicode="6" glyph-name="six" horiz-adv-x="650" d="M484 432Q484 504 439 543T326 583T212 544T165 432V428Q231 482 333 482H338Q423 482 484 428V432ZM436 363Q390 401 324 401T213 364L325 278L436 363ZM164 240Q165 238 165 218T178 166L305 263L196
347Q165 310 164 257V240ZM483 241Q483 301 452 345L345 263L469 168Q483 204 483 241ZM325 81Q387 81 433 116Q448 129 458 147L325 248L190 145Q234 81 325 81ZM320 0Q195 3 125 95L0 0V30L112 115Q87 159 84 218V241Q83 245 83 255T84 273V432L0 496V526L86
460Q95 556 164 610T324 664T484 610T564 460L650 526V496L565 431V392H518Q564 333 564 250V240Q565 238 565 232Q565 167 537 116L650 30V0L524 96Q509 74 484 54Q422 0 333 0H320Z" />
<glyph unicode="7" glyph-name="seven" horiz-adv-x="650" d="M564 429L563 426V425Q562 424 562 423T561 422L555 413L395 225L650 30V0L379 206L203 -1H96L276 211L0 0V30L305 263L0 496V526L325 278L349 297L485 456V583H84V664H565V633Q566 630 566 624V462L650
526V496L564 431V429Z" />
<glyph unicode="8" glyph-name="eight" horiz-adv-x="650" d="M334 373Q404 373 443 403T484 474Q481 523 438 553T328 583T213 554T165 474Q167 433 206 403T315 373H334ZM565 195V186Q565 146 546 109L650 30V0L534 89Q469 0 334 0H308Q177 3 116 88L0 0V30L103
109Q84 144 84 186V195Q84 201 85 204Q93 284 166 332Q112 369 93 425L0 496V526L85 461Q84 464 84 469V478Q84 553 145 608T315 664H334Q442 664 503 609T565 478V469Q565 463 564 460L650 526V496L556 424Q536 367 483 332Q556 284 564 204Q565 201 565 195ZM343
292H307L325 278L343 292ZM171 161L305 263L272 288Q222 279 195 252T165 190Q166 175 171 161ZM478 161Q484 173 483 198T455 251T378 288L345 263L478 161ZM281 81T325 81T408 96T467 140L325 248L183 139Q203 111 242 96Z" />
<glyph unicode="9" glyph-name="nine" horiz-adv-x="650" d="M485 414V432Q485 504 438 545Q392 583 324 583T210 542Q166 497 166 423Q166 414 168 398L325 278L484 399Q485 404 485 414ZM346 264H350Q395 270 430 295T478 365L346 264ZM304 264L176 362Q187
329 207 307Q245 270 304 264ZM485 222V236Q457 214 426 201L475 164Q485 191 485 222ZM528 93Q458 0 307 0H267V81H312Q425 83 464 142L398 192Q365 182 326 182H310Q272 184 250 191L0 0V30L223 200Q184 216 161 239Q85 304 85 414V431L0 496V526L86 460Q94 539
149 595Q213 664 316 664H326Q416 664 485 610T565 461L650 526V496L566 432V222Q566 163 541 113L650 30V0L528 93Z" />
<glyph unicode=":" glyph-name="colon" horiz-adv-x="650" d="M241 465V633H409V465H241ZM409 41H241V184L0 0V30L305 263L0 496V526L325 278L650 526V496L345 263L650 30V0L409 184V41ZM376 209L325 248L274 209H376Z" />
<glyph unicode=";" glyph-name="semicolon" horiz-adv-x="650" d="M241 465V633H409V465H241ZM376 209L325 248L274 209H376ZM182 -122H137V-32H188Q235 -31 253 -16T277 41H241V184L0 0V30L305 263L0 496V526L325 278L650 526V496L345 263L650 30V0L409 184V41H368Q361
-42 322 -82T182 -122Z" />
<glyph unicode="=" glyph-name="equal" horiz-adv-x="650" d="M480 396H170L277 315H373L480 396ZM96 234V315H237L131 396H96V423L0 496V526L96 453V477H554V453L650 526V496L554 423V396H519L413 315H554V234H383L650 30V0L343 234H307L0 0V30L267 234H96Z" />
<glyph unicode="?" glyph-name="question" horiz-adv-x="650" d="M317 173H311Q276 174 248 189L0 0V30L227 203Q184 242 184 314Q184 330 188 352L0 496V526L196 376Q230 447 325 447Q345 447 365 456Q404 474 404 515T382 579T325 603T269 580T246 517H165Q165
577 198 627Q237 684 325 684T452 627Q485 577 485 516T440 411T325 366H317Q271 362 266 323L325 278L369 312V314H372L650 526V496L411 314H450Q450 249 414 210L650 30V0L395 194Q363 173 317 173ZM298 257L305 263L268 292Q275 264 298 257ZM346 262Q353 267
358 273L345 263L346 262ZM249 41T249 69T269 117T317 138T366 118T386 70T366 21T318 0T269 20Z" />
<glyph unicode="@" glyph-name="at" horiz-adv-x="650" d="M355 460Q433 460 484 399L505 416Q498 481 449 530T334 579T220 533T152 410L205 370L207 373Q229 413 268 436T355 460ZM504 371Q504 373 505 378T506 386L498 380Q502 372 504 370V371ZM185 291Q185
323 195 347L147 384Q143 363 143 335Q143 238 176 165L216 195Q185 237 185 291ZM420 350Q393 379 360 379T304 362T272 319L325 278L420 350ZM443 291Q443 311 433 331L345 263L403 218L405 220Q443 246 443 291ZM267 291Q267 265 281 245L305 263L267 292V291ZM355
203H360Q372 205 379 207L325 248L297 226Q323 203 355 203ZM398 -45H352Q204 -42 123 94L0 0V30L112 115Q63 211 63 335Q63 390 76 438L0 496V526L83 463Q112 551 178 605T337 660H340Q426 659 489 604T575 469L650 526V496L582 444Q586 412 586 398Q586 293 524
210V126L650 30V0L502 113H443V142Q403 122 355 122Q282 122 231 176L187 143Q246 36 357 36H398V-45Z" />
<glyph unicode="A" glyph-name="A" horiz-adv-x="650" d="M325 278L387 325L326 500L264 324L325 278ZM431 197L395 301L345 263L431 197ZM220 198L305 263L256 301L220 198ZM401 190L325 248L249 190H401ZM499 0L462 109H189L152 0H70L95 72L0 0V30L109 113L190
351L0 496V526L198 375L297 664H354L453 375L650 526V496L461 352L543 112L650 30V0L556 71L581 0H499Z" />
<glyph unicode="B" glyph-name="B" horiz-adv-x="650" d="M201 373H341Q410 375 447 406T484 478T445 551T334 583H165V400L201 373ZM165 292V156L305 263L267 292H165ZM343 292H307L325 278L343 292ZM484 186Q484 221 457 250T378 288L345 263L480 160Q484 172
484 186ZM334 81Q432 81 469 138L325 248L165 126V81H334ZM84 0V64L0 0V30L84 94V432L0 496V526L84 462V664H347Q449 660 507 606T565 478Q565 466 564 460L650 526V496L556 424Q536 367 483 332Q565 277 565 186Q565 146 546 109L650 30V0L534 89Q473 4 347 0H84Z"
/>
<glyph unicode="C" glyph-name="C" horiz-adv-x="650" d="M484 432V438Q482 506 438 544T326 583T212 544T165 432V400L325 278L527 432H484ZM324 0H319Q227 2 160 58Q141 74 125 95L0 0V30L112 116Q87 161 84 218V432L0 496V526L85 461Q96 557 165 610T324 664T484
610T564 460L650 526V496L345 263L471 166Q484 197 484 232H565V226Q564 164 537 116L650 30V0L524 96Q491 49 438 25T324 0ZM165 232Q165 197 178 166L305 263L165 370V232ZM190 145Q234 81 325 81T459 145L325 248L190 145Z" />
<glyph unicode="D" glyph-name="D" horiz-adv-x="650" d="M334 583H164V401L325 278L479 396Q468 477 430 530T334 583ZM164 155L305 263L164 371V155ZM484 332Q484 356 483 368L345 263L455 179L456 180Q484 247 484 332ZM334 81Q401 81 442 152L445 157L325
248L164 125V81H334ZM84 0V64L0 0V30L84 94V432L0 496V526L84 462V664H343Q347 664 350 663Q452 655 512 553Q538 508 551 451L650 526V496L557 425Q565 377 565 332Q565 216 521 128L650 30V0L509 107Q449 9 350 1Q348 0 343 0H84Z" />
<glyph unicode="E" glyph-name="E" horiz-adv-x="650" d="M343 292H307L325 278L343 292ZM165 292V156L305 263L267 292H165ZM165 81H544L325 248L165 126V81ZM84 0V64L0 0V30L84 94V432L0 496V526L84 462V664H565V583H165V400L201 373H419V350L650 526V496L419
320V292H383L345 263L650 30V0L565 65V0H84Z" />
<glyph unicode="F" glyph-name="F" horiz-adv-x="650" d="M392 329H258L325 278L392 329ZM165 329V156L305 263L219 329H165ZM165 0H84V64L0 0V30L84 94V432L0 496V526L84 462V664H565V583H165V410H492V405L650 526V496L492 375V329H431L345 263L650 30V0L325
248L165 126V0Z" />
<glyph unicode="G" glyph-name="G" horiz-adv-x="650" d="M324 0H319Q227 2 160 58Q141 74 125 95L0 0V30L112 116Q87 161 84 218V432L0 496V526L85 461Q96 557 165 610T324 664T484 610T564 460L650 526V496L442 337H565V217Q562 161 537 116L650 30V0L524 96Q491
49 438 25T324 0ZM165 232Q165 197 178 166L302 260V266L165 370V232ZM302 337H402L527 432H484V438Q482 506 438 544T326 583T212 544T165 432V400L302 296V337ZM471 166Q484 192 484 232V256H354L471 166ZM190 145Q234 81 325 81T459 145L325 248L190 145Z" />
<glyph unicode="H" glyph-name="H" horiz-adv-x="650" d="M484 329H431L345 263L484 157V329ZM392 329H258L325 278L392 329ZM165 329V156L305 263L219 329H165ZM84 0V64L0 0V30L84 94V432L0 496V526L84 462V664H165V410H484V664H565V461L650 526V496L565 431V95L650
30V0L565 65V0H484V127L325 248L165 126V0H84Z" />
<glyph unicode="I" glyph-name="I" horiz-adv-x="650" d="M284 81V217L106 81H284ZM365 81H544L365 217V81ZM84 0V64L0 0V30L284 247V279L0 496V526L284 309V583H84V664H565V583H365V309L650 526V496L365 279V247L650 30V0L565 65V0H84Z" />
<glyph unicode="J" glyph-name="J" horiz-adv-x="650" d="M472 166Q485 192 485 232V370L345 263L472 166ZM325 0H320Q228 2 161 58Q143 72 126 96L0 0V30L113 116Q85 166 85 232V273H166V226Q168 190 179 166L305 263L0 496V526L325 278L485 400V583H231V664H566V462L650
526V496L566 432V232Q566 169 538 116L650 30V0L525 96Q491 49 438 25T325 0ZM191 145Q233 81 324 81T460 145L325 248L191 145Z" />
<glyph unicode="K" glyph-name="K" horiz-adv-x="650" d="M165 292V156L258 227L201 292H165ZM165 0H84V64L0 0V30L84 94V432L0 496V526L84 462V664H165V400L201 373H202L456 664H565L275 332L316 285L325 278L650 526V496L345 263L650 30V0L395 194L506 68L565
0H456L274 209L165 126V0Z" />
<glyph unicode="L" glyph-name="L" horiz-adv-x="650" d="M165 156L305 263L165 370V156ZM165 81H544L325 248L165 126V81ZM84 0V64L0 0V30L84 94V432L0 496V526L84 462V664H165V400L325 278L650 526V496L345 263L650 30V0L565 65V0H84Z" />
<glyph unicode="M" glyph-name="M" horiz-adv-x="650" d="M165 156L223 201L174 363L165 370V156ZM484 157V369L474 362L426 201L484 157ZM290 251L305 263L280 282L290 251ZM359 252L368 280L345 263L359 252ZM324 137L352 228L325 248L297 227L324 137ZM165
0H84V64L0 0V30L84 94V432L0 496V526L84 462V664H165L268 321L325 278L379 320L484 664H565V461L650 526V496L565 431V95L650 30V0L565 65V0H484V127L418 177L365 0H284L231 176L165 126V0Z" />
<glyph unicode="N" glyph-name="N" horiz-adv-x="650" d="M298 299L165 512V400L298 299ZM165 156L305 263L165 370V156ZM484 157V369L392 299L479 161L484 157ZM165 0H84V64L0 0V30L84 94V432L0 496V526L84 462V664H165L380 320L484 399V664H565V461L650 526V496L565
431V95L650 30V0L565 65V0H484L333 242L325 248L165 126V0Z" />
<glyph unicode="O" glyph-name="O" horiz-adv-x="650" d="M481 397Q463 583 325 583H319Q186 581 168 398L325 278L481 397ZM325 0H322Q196 2 135 103L0 0V30L123 124Q84 204 84 332Q84 385 90 427L0 496V526L95 454Q108 518 135 562T196 627T261 656T325 664T388
656T453 627T514 562T554 453L650 526V496L559 426Q565 384 565 332Q565 203 526 125L650 30V0L515 103Q453 0 325 0ZM165 332Q165 234 189 174L305 263L166 369Q165 357 165 332ZM484 332Q484 357 483 369L345 263L460 175L461 176Q484 236 484 332ZM214 130Q253
81 324 81Q410 81 450 153L325 248L199 152Q204 144 214 130Z" />
<glyph unicode="P" glyph-name="P" horiz-adv-x="650" d="M484 423Q484 489 446 536T334 583H165V400L325 278L482 398L483 399Q484 407 484 423ZM165 263H305L165 370V263ZM345 263H346Q442 270 474 362L345 263ZM165 0H84V64L0 0V30L84 94V432L0 496V526L84
462V664H348Q439 659 495 601T563 459L650 526V496L565 431V423Q565 351 529 289T427 200L650 30V0L400 191Q376 183 348 182H239L165 126V0ZM165 182V156L199 182H165Z" />
<glyph unicode="Q" glyph-name="Q" horiz-adv-x="650" d="M449 216L485 242V370L390 298L449 216ZM166 157L305 263L166 369V157ZM166 573V399L290 305L315 323Q316 324 318 325Q324 329 327 331L354 350L377 317L485 400V573Q485 581 477 581H174L170 580Q166
579 166 573ZM166 87Q168 79 174 79H258L383 169L329 245L325 248L166 127V87ZM274 -2H174Q142 -2 118 17T87 67L0 0V30L85 95V431L0 496V526L85 461V573Q85 610 110 636T174 662H477Q514 662 540 636T566 573V462L650 526V496L566 432V221Q566 199 549 188L496
150L500 144L650 30V0L547 78L582 29L550 6L549 5H548L517 -18L430 103L294 5Q286 0 274 -2Z" />
<glyph unicode="R" glyph-name="R" horiz-adv-x="650" d="M484 423Q484 489 446 536T334 583H165V400L325 278L482 398L483 399Q484 407 484 423ZM165 263H305L165 370V263ZM345 263H346Q442 270 474 362L345 263ZM355 183L348 182H239L165 126V0H84V64L0 0V30L84
94V432L0 496V526L84 462V664H348Q439 659 495 601T563 459L650 526V496L565 431V423Q565 353 532 293T436 204L446 185L650 30V0L478 132L554 0H460L355 183ZM165 182V156L199 182H165Z" />
<glyph unicode="S" glyph-name="S" horiz-adv-x="650" d="M315 373H341Q391 371 430 358L522 428H484V474Q481 523 438 553T328 583T213 554T165 474Q167 433 206 403T315 373ZM343 292H307L325 278L343 292ZM478 161Q484 173 483 198T455 251T378 288L345 263L478
161ZM203 111T242 96T324 81T407 96T467 140L325 248L183 139Q203 111 242 96ZM565 195V186Q565 146 546 109L650 30V0L534 89Q469 0 334 0H319Q228 2 164 46Q137 63 118 90L0 0V30L105 110Q84 148 84 195V236H165V190Q167 173 171 161L305 263L262 296Q196 307
153 342T93 425L0 496V526L85 461Q84 464 84 469V478Q84 553 145 608T315 664H324Q422 664 493 612T565 469V461L650 526V496L565 431V428H561L456 348Q503 325 531 287T564 204Q565 201 565 195Z" />
<glyph unicode="T" glyph-name="T" horiz-adv-x="650" d="M165 428H128L284 309V583H165V428ZM484 428V583H365V309L522 428H484ZM365 0H284V217L0 0V30L284 247V279L89 428H84V432L0 496V526L84 462V664H565V461L650 526V496L565 431V428H561L365 279V247L650
30V0L365 217V0Z" />
<glyph unicode="U" glyph-name="U" horiz-adv-x="650" d="M472 166Q485 192 485 232V370L345 263L472 166ZM166 232Q166 197 179 166L305 263L166 369V232ZM191 145Q233 81 324 81T460 145L325 248L191 145ZM566 0H485V54Q419 0 325 0H320Q228 2 161 58Q143 72
126 96L0 0V30L113 116Q88 163 85 217V431L0 496V526L85 461V664H166V399L325 278L485 400V664H566V462L650 526V496L566 432V94L650 30V0L566 64V0Z" />
<glyph unicode="V" glyph-name="V" horiz-adv-x="650" d="M331 0H318Q298 4 292 15T285 32L223 170L0 0V30L213 192L116 408L0 496V526L95 454L92 460Q83 470 83 479T84 493V664H165V489L226 353L325 278L422 352L485 491V624H484V664H565V633Q566 630 566 624V484Q566
470 556 458L554 452L650 526V496L533 407L436 193L650 30V0L426 171L364 32Q364 30 356 15Q345 3 331 0ZM277 241L305 263L247 308L277 241ZM372 242L402 306L345 263L372 242ZM325 136L362 220L325 248L287 219L325 136Z" />
<glyph unicode="W" glyph-name="W" horiz-adv-x="650" d="M239 0H229Q222 1 213 5Q192 19 194 43L172 132L0 0V30L166 157L101 419L0 496V526L92 456L90 464Q82 477 85 492V624H84V664H165V633Q166 630 166 624V479L190 381L269 321L285 381V418H366V379L381 321L461
382L485 479V624H484V664H565V633Q566 630 566 624V492Q569 477 561 464L559 457L650 526V496L550 420L485 156L650 30V0L478 131L457 44Q459 19 438 5Q426 0 422 0H412Q406 1 396 5Q374 17 376 43L326 230L275 43Q277 17 255 5Q245 0 239 0ZM418 207L452 345L388
296L410 213L418 207ZM233 208L240 213L262 296L199 344L233 208Z" />
<glyph unicode="X" glyph-name="X" horiz-adv-x="650" d="M168 0H74L140 107L0 0V30L174 163L258 299L0 496V526L271 319L279 332L74 664H168L325 408L483 664H576L372 332L380 320L650 526V496L392 299L476 163L650 30V0L511 106L576 0H483L335 240L325 248L316
241L168 0Z" />
<glyph unicode="Y" glyph-name="Y" horiz-adv-x="650" d="M365 0H284V217L0 0V30L284 247V276L106 404Q90 411 85 431L0 496V526L84 462V664H165V461L325 344L484 461V664H565V461L650 526V496L564 430Q559 411 543 405L365 276V247L650 30V0L365 217V0Z" />
<glyph unicode="Z" glyph-name="Z" horiz-adv-x="650" d="M165 437H117L268 321L448 583H165V437ZM484 81V127L325 248L306 233L201 81H484ZM84 0V36Q82 51 91 63L100 77L0 0V30L143 139L255 302L0 496V526L84 462V664H565V628Q567 613 558 601L349 296L650 526V496L345
263L484 157V227H565V95L650 30V0L565 65V0H84Z" />
<glyph unicode="[" glyph-name="bracketleft" horiz-adv-x="650" d="M238 212L305 263L238 314V212ZM157 -90V120L0 0V30L157 150V376L0 496V526L157 406V736H492V655H238V344L325 278L650 526V496L345 263L650 30V0L325 248L238 182V-9H492V-90H157Z" />
<glyph unicode="\" glyph-name="backslash" horiz-adv-x="650" d="M558 0H459L323 246L0 0V30L305 263L0 496V526L291 304L92 664H191L381 321L650 526V496L392 299L462 173L650 30V0L491 121L558 0Z" />
<glyph unicode="]" glyph-name="bracketright" horiz-adv-x="650" d="M412 212V314L345 263L412 212ZM158 -90V-9H412V182L325 248L0 0V30L305 263L0 496V526L325 278L412 344V655H158V736H493V406L650 526V496L493 376V150L650 30V0L493 120V-90H158Z" />
<glyph unicode="_" glyph-name="underscore" horiz-adv-x="650" d="M544 81L325 248L106 81H544ZM84 0V64L0 0V30L305 263L0 496V526L325 278L650 526V496L345 263L650 30V0L565 65V0H84Z" />
<glyph unicode="a" glyph-name="a" horiz-adv-x="650" d="M482 337V340Q481 344 480 352T477 364L459 350Q475 342 482 337ZM344 293H305L325 278L344 293ZM166 186Q166 176 168 158L305 263L269 291Q218 286 192 263T166 186ZM476 186Q476 237 452 260T380 290L345
263L475 164V165Q476 171 476 186ZM316 81H326Q445 81 468 139L325 248L176 134Q202 81 316 81ZM316 374H326Q385 374 432 360L468 387Q437 445 361 445H157V526H366Q480 524 532 436L650 526V496L543 415Q566 364 566 295V94L650 30V0L566 64V0H485V38Q427 0 326
0H316Q165 0 111 85L0 0V30L100 106Q85 140 85 186Q85 308 189 352L0 496V526L215 362Q259 374 316 374Z" />
<glyph unicode="b" glyph-name="b" horiz-adv-x="650" d="M458 380Q412 445 323 445T190 381L325 278L458 380ZM165 294V232Q165 197 178 166L305 263L178 360Q165 329 165 294ZM471 166Q484 192 484 232V294Q484 329 470 359L345 263L471 166ZM190 145Q234 81
325 81T459 145L325 248L190 145ZM165 0H84V64L0 0V30L84 94V432L0 496V526L84 462V720H165V472Q231 526 324 526Q383 526 436 501T524 430L650 526V496L537 410Q565 359 565 296V217Q562 161 537 116L650 30V0L524 96Q491 49 438 25T324 0H319Q230 2 165 54V0Z"
/>
<glyph unicode="c" glyph-name="c" horiz-adv-x="650" d="M458 380Q412 445 323 445T190 381L325 278L458 380ZM165 294V222Q165 191 175 164L305 263L178 360Q165 329 165 294ZM343 81H544L325 248L186 142Q227 81 343 81ZM343 0Q192 0 122 93L0 0V30L109 113Q84
163 84 222V298Q86 363 113 410L0 496V526L125 430Q159 476 212 501T324 526T436 501T524 430L650 526V496L537 410Q565 359 565 294H484Q484 329 470 359L345 263L650 30V0L565 65V0H343Z" />
<glyph unicode="d" glyph-name="d" horiz-adv-x="650" d="M459 380Q415 445 324 445T191 381L325 278L459 380ZM166 294V232Q166 197 179 166L305 263L179 360Q166 329 166 294ZM472 166Q485 192 485 232V294Q485 329 471 359L345 263L472 166ZM191 145Q233 81
324 81T460 145L325 248L191 145ZM566 0H485V54Q419 0 326 0H321Q262 1 210 26T126 96L0 0V30L113 116Q88 161 85 218V298Q86 360 113 410L0 496V526L126 430Q159 476 212 501T325 526Q419 526 485 472V720H566V462L650 526V496L566 432V94L650 30V0L566 64V0Z"
/>
<glyph unicode="e" glyph-name="e" horiz-adv-x="650" d="M458 380Q412 445 323 445T190 381L325 278L458 380ZM165 294V270H296L178 360Q165 329 165 294ZM484 270V299Q483 331 470 359L354 270H484ZM208 189H168Q172 171 175 164L208 189ZM343 81H544L402 189H248L186
142Q227 81 343 81ZM343 0Q192 0 122 93L0 0V30L109 113Q84 163 84 222V298Q86 363 113 410L0 496V526L125 430Q159 476 212 501T324 526T436 501T524 430L650 526V496L537 410Q565 359 565 294V189H442L650 30V0L565 65V0H343Z" />
<glyph unicode="f" glyph-name="f" horiz-adv-x="650" d="M222 445H106L222 357V445ZM303 261L305 263L303 265V261ZM222 81V169L106 81H222ZM303 81H544L325 248L303 231V81ZM85 0V65L0 0V30L222 199V327L0 496V526L85 461V526H222Q223 576 228 607T251 666Q284
720 391 720H566V639H391Q336 639 321 618T303 526H481V445H303V295L325 278L650 526V496L345 263L650 30V0L566 64V0H85Z" />
<glyph unicode="g" glyph-name="g" horiz-adv-x="650" d="M459 380Q415 445 324 445T191 381L325 278L459 380ZM166 294V225Q168 190 179 166L305 263L179 360Q166 329 166 294ZM485 231V294Q485 329 471 359L345 263L471 166V167Q485 197 485 231ZM190 145Q235
81 324 81T459 145L325 248L190 145ZM307 -230H267V-149H307Q485 -149 485 -8V54Q419 0 325 0Q266 0 213 25T126 96L0 0V30L113 116Q85 166 85 231V294Q85 359 113 410L0 496V526L126 430Q159 476 212 501T325 526Q419 526 485 472V526H566V462L650 526V496L566
432V94L650 30V0L566 64V-8Q566 -111 497 -170T307 -230Z" />
<glyph unicode="h" glyph-name="h" horiz-adv-x="650" d="M458 380Q412 445 323 445T190 381L325 278L458 380ZM165 294V156L305 263L178 360Q165 329 165 294ZM484 157V299Q483 331 470 359L345 263L484 157ZM84 0V64L0 0V30L84 94V432L0 496V526L84 462V720H165V472Q231
526 324 526Q383 526 436 501T524 430L650 526V496L537 410Q565 359 565 294V95L650 30V0L565 65V0H484V127L325 248L165 126V0H84Z" />
<glyph unicode="i" glyph-name="i" horiz-adv-x="650" d="M260 590V720H391V590H260ZM285 81V217L106 81H285ZM366 81H544L366 217V81ZM85 0V65L0 0V30L285 247V279L0 496V526L285 309V445H125V526H366V309L650 526V496L366 279V247L650 30V0L566 64V0H85Z" />
<glyph unicode="j" glyph-name="j" horiz-adv-x="650" d="M344 590V720H475V590H344ZM369 244V282L345 263L369 244ZM106 -230V-149H191Q369 -149 369 -8V214L325 248L0 0V30L305 263L0 496V526L325 278L369 312V445H169V526H450V373L650 526V496L450 343V183L650
30V0L450 153V-8Q450 -109 381 -169T191 -230H106Z" />
<glyph unicode="k" glyph-name="k" horiz-adv-x="650" d="M165 248L234 317L165 370V248ZM165 0H84V64L0 0V30L84 94V432L0 496V526L84 462V720H165V400L251 334L443 526H560L317 284L325 278L650 526V496L345 263L650 30V0L396 194L570 0H462L275 209L165 126V0Z" />
<glyph unicode="l" glyph-name="l" horiz-adv-x="650" d="M365 81H544L365 217V81ZM284 81V217L106 81H284ZM84 0V64L0 0V30L284 247V279L0 496V526L284 309V639H84V720H365V309L650 526V496L365 279V247L650 30V0L565 65V0H84Z" />
<glyph unicode="m" glyph-name="m" horiz-adv-x="650" d="M365 309L479 395Q470 437 425 444Q386 439 376 412T365 309ZM284 312Q284 385 273 412T224 443Q200 440 188 429T171 396L284 309V312ZM165 303V156L284 247V279L167 369Q165 351 165 303ZM484 157V303Q484
350 482 368L365 279V247L484 157ZM84 0V64L0 0V30L84 94V303Q84 387 93 425L0 496V526L101 449Q118 495 166 513Q177 526 196 526T224 525Q233 526 251 526T282 513Q308 504 324 486Q340 503 368 514Q380 526 398 526T425 525Q433 526 451 526T481 514Q530 496
549 449L650 526V496L556 424Q565 387 565 303V95L650 30V0L565 65V0H484V127L365 217V0H284V217L165 126V0H84Z" />
<glyph unicode="n" glyph-name="n" horiz-adv-x="650" d="M459 381Q417 445 326 445T191 380L325 278L459 381ZM484 157V300Q482 336 471 360L345 263L484 157ZM165 294V156L305 263L179 359Q165 329 165 294ZM84 0V64L0 0V30L84 94V294Q84 358 113 410L0 496V526L125
430Q159 476 212 501T325 526T437 501T524 430L650 526V496L537 410Q565 359 565 294V95L650 30V0L565 65V0H484V127L325 248L165 126V0H84Z" />
<glyph unicode="o" glyph-name="o" horiz-adv-x="650" d="M384 0T324 0T211 24T125 95L0 0V30L112 116Q84 166 84 231V298Q86 363 113 410L0 496V526L125 430Q159 476 212 501T324 526T436 501T524 430L650 526V496L537 410Q565 359 565 296V231Q565 166 537 116L650
30V0L524 96Q491 50 438 25ZM458 380Q412 445 323 445T190 381L325 278L458 380ZM165 294V225Q167 190 178 166L305 263L178 360Q165 329 165 294ZM484 231V294Q484 329 470 359L345 263L471 167L472 171Q484 198 484 231ZM190 145Q232 81 323 81T459 146L325 248L190
145Z" />
<glyph unicode="p" glyph-name="p" horiz-adv-x="650" d="M459 381Q417 445 326 445T191 380L325 278L459 381ZM484 231V300Q482 336 471 360L345 263L471 166Q484 197 484 231ZM165 294V231Q165 196 179 166L305 263L179 359Q165 329 165 294ZM191 145Q236 81
325 81T460 145L325 248L191 145ZM84 -230V64L0 0V30L84 94V432L0 496V526L84 462V526H165V472Q231 526 325 526Q384 526 437 501T524 430L650 526V496L537 410Q565 359 565 294V231Q565 166 537 116L650 30V0L524 96Q491 50 438 25T325 0Q231 0 165 54V-230H84Z"
/>
<glyph unicode="q" glyph-name="q" horiz-adv-x="650" d="M459 380Q415 445 324 445T191 381L325 278L459 380ZM166 294V225Q168 190 179 166L305 263L179 360Q166 329 166 294ZM485 231V294Q485 329 471 359L345 263L471 166V167Q485 197 485 231ZM190 145Q235
81 324 81T459 145L325 248L190 145ZM485 -230V54Q419 0 325 0Q266 0 213 25T126 96L0 0V30L113 116Q85 166 85 231V294Q85 359 113 410L0 496V526L126 430Q159 476 212 501T325 526Q419 526 485 472V526H566V462L650 526V496L566 432V94L650 30V0L566 64V-230H485Z"
/>
<glyph unicode="r" glyph-name="r" horiz-adv-x="650" d="M454 376Q422 445 331 445T197 375L325 278L454 376ZM176 294V164L305 263L186 354Q176 324 176 294ZM176 0H95V72L0 0V30L95 102V424L0 496V526L95 454V526H176V472Q244 526 336 526Q463 526 519 426L650
526V496L530 404Q550 358 550 295H469Q469 328 462 353L345 263L650 30V0L325 248L176 134V0Z" />
<glyph unicode="s" glyph-name="s" horiz-adv-x="650" d="M201 375V373L294 302H356L452 375H448V379Q444 407 405 426T323 445T240 426T201 375ZM241 312L208 337Q220 322 241 312ZM348 81Q358 81 371 82T394 85T417 91T440 101Q461 114 470 137L360 221H290L181
138Q193 113 228 99T285 83T322 81H348ZM406 221H400L475 164V168Q475 186 458 203T406 221ZM324 0Q281 0 237 12Q149 34 115 88L0 0V30L104 109Q93 136 93 168H174V163L254 224Q198 233 159 265T120 354V375Q120 390 123 402L0 496V526L131 426Q153 475 209 500T325
526T440 501T519 426L650 526V496L526 402Q529 388 529 375H491L396 302H406Q467 302 511 269T556 168V161Q554 130 546 109L650 30V0L536 87Q485 0 324 0Z" />
<glyph unicode="t" glyph-name="t" horiz-adv-x="650" d="M396 0H390Q293 0 259 41T222 169L0 0V30L221 199V327L0 496V526L84 462V526H221V720H302V526H480V445H302V296L325 278L650 526V496L345 263L482 158Q484 175 484 222V263H565V219Q565 138 556 102L650
30V0L549 77Q518 0 396 0ZM221 445H106L221 357V445ZM302 260L305 263L302 266V260ZM302 230V213Q302 129 317 105T390 81H396Q436 81 454 91T479 131L325 248L302 230Z" />
<glyph unicode="u" glyph-name="u" horiz-adv-x="650" d="M485 231V370L345 263L471 166V167Q485 197 485 231ZM166 369V225Q168 190 179 166L305 263L166 369ZM190 145Q235 81 324 81T459 145L325 248L190 145ZM566 0H485V54Q419 0 325 0Q266 0 213 25T126 96L0
0V30L113 116Q85 166 85 231V431L0 496V526L85 461V526H166V399L325 278L485 400V526H566V462L650 526V496L566 432V94L650 30V0L566 64V0Z" />
<glyph unicode="v" glyph-name="v" horiz-adv-x="650" d="M331 0H318Q304 3 293 15L208 158L0 0V30L195 179L92 352Q83 362 83 371T84 385V432L0 496V526L84 462V526H165V400L325 278L485 400V526H566V462L650 526V496L566 432V376Q566 362 556 350L454 179L650
30V0L442 159L356 15Q345 3 331 0ZM259 228L305 263L182 357L259 228ZM390 228L466 355L345 263L390 228ZM325 119L378 208L325 248L272 207L325 119Z" />
<glyph unicode="w" glyph-name="w" horiz-adv-x="650" d="M239 0H229Q222 1 213 5Q201 13 197 25L145 111L0 0V30L133 131L90 202Q82 215 85 230V431L0 496V526L85 461V526H166V399L285 309V418H366V309L485 400V526H566V462L650 526V496L566 432V230Q569 215
561 202L518 131L650 30V0L506 110L452 21Q443 7 434 4Q433 4 429 2T417 0H411Q396 0 384 15Q384 17 381 20L325 113L273 26Q267 12 255 5Q245 0 239 0ZM453 180L485 232V370L366 279V247L453 180ZM197 180L285 247V279L166 369V232L197 180ZM234 119L285 204V217L210
160L234 119ZM416 118L441 159L366 217V202L416 118Z" />
<glyph unicode="x" glyph-name="x" horiz-adv-x="650" d="M194 0H94L204 156L0 0V30L250 221L276 257L231 320L0 496V526L185 385L85 526H185L326 327L466 526H566L468 387L650 526V496L421 322L376 257L402 219L650 30V0L448 154L557 0H457L326 186L194 0Z" />
<glyph unicode="y" glyph-name="y" horiz-adv-x="650" d="M259 228L305 263L182 357L259 228ZM390 228L466 355L345 263L390 228ZM325 119L378 208L325 248L272 207L325 119ZM196 -230H156V-149H202Q257 -148 270 -123T284 -8V30L208 158L0 0V30L195 179L92 352Q83
362 83 371T84 385V432L0 496V526L84 462V526H165V400L325 278L484 399V526H565V461L650 526V496L565 431V376Q565 363 558 355L557 352L454 179L650 30V0L442 159L365 30V-33Q364 -84 359 -115T336 -176Q305 -230 196 -230Z" />
<glyph unicode="z" glyph-name="z" horiz-adv-x="650" d="M435 445H106L301 296L435 445ZM216 81H544L350 229L216 81ZM85 0V57L108 83L0 0V30L197 180L285 278L0 496V526L85 461V526H566V469L545 446L650 526V496L457 349L366 247L650 30V0L566 64V0H85Z" />
<glyph unicode="}" glyph-name="braceright" horiz-adv-x="605" />
<glyph unicode="~" glyph-name="asciitilde" horiz-adv-x="650" d="M421 321H426Q445 323 461 329Q514 348 516 394L421 321ZM229 386Q212 386 192 379L323 280Q301 302 287 340Q270 386 229 386ZM121 434Q178 467 238 467Q278 467 312 441T359 378T392 329L511
420V421L514 422L650 526V496L587 448Q599 415 599 385T583 326Q553 276 489 254Q451 240 417 240T355 255L650 30V0L325 248L0 0V30L305 263L168 368Q134 347 134 314Q134 301 139 286L63 258Q51 291 51 320Q51 378 100 419L0 496V526L121 434Z" />
</font>
</defs>
</svg>
